<?xml version="1.0" encoding="utf-8"?>
<!-- Generator: Adobe Illustrator 22.1.0, SVG Export Plug-In . SVG Version: 6.00 Build 0)  -->
<svg version="1.1" id="Layer_1" xmlns="http://www.w3.org/2000/svg" xmlns:xlink="http://www.w3.org/1999/xlink" x="0px" y="0px"
	 viewBox="0 0 100 125" style="enable-background:new 0 0 100 125;" xml:space="preserve">
<style type="text/css">
	.st0{fill:#5E58B7;}
</style>
<path class="st0" d="M71,64.4c-0.3-0.4-0.8-0.5-1.2-0.5c-3.4,0.2-7.1,2.3-9.7,4.4c-4.2-2.4-10-5-15.1-5c-6.2,0-13.2,3.9-16.2,6.7
	c-0.8,0.8-1.3,1.9-1.3,3.1c0,1.2,0.5,2.4,1.3,3.1c3,2.8,10,6.7,16.2,6.7c5,0,10.8-2.6,15.1-5c2.7,2,6.3,4.2,9.7,4.4
	c0.5,0,0.9-0.2,1.2-0.5c0.3-0.4,0.4-0.8,0.3-1.3c-0.3-1.5-1.2-5.9-1.2-7.3c0-1.5,0.9-5.8,1.2-7.4C71.4,65.3,71.3,64.8,71,64.4z
	 M39,78.7c0.8-1.5,1.1-3.7,1.1-5.6c0-2-0.3-4.1-1.1-5.6c2-0.7,4.1-1.2,6-1.2c4.7,0,10.4,2.8,14.4,5.1c0.5,0.3,1.2,0.3,1.7-0.1
	c2.5-2,4.8-3.3,6.8-4c-0.4,1.9-0.8,4.5-0.8,5.8c0,1.3,0.5,3.9,0.8,5.8c-2-0.6-4.4-2-6.8-4c-0.5-0.4-1.2-0.4-1.7-0.1
	c-4,2.3-9.7,5.1-14.4,5.1C43.1,79.9,41,79.4,39,78.7z M30.8,74c-0.2-0.2-0.4-0.6-0.4-0.9c0-0.4,0.1-0.7,0.4-0.9
	c1.2-1.1,3.1-2.4,5.4-3.5c0.3,0.5,0.9,2.1,0.9,4.4c0,2.5-0.5,4-0.9,4.4C33.9,76.4,32,75.1,30.8,74z M88.4,31.9
	c3.7-3.1,5.3-6.2,4.7-9.2c-2-9.7-26.4-10.2-48.4-5.7C32.9,19.5,22,23.2,14.1,27.5C5.6,32.1,1.6,36.9,2.5,41.2
	c0.1,0.7,0.4,1.3,0.7,1.8v36.6c0,9.9,23.8,15.2,46.2,15.2s46.2-5.3,46.2-15.2V41.3c0-0.3,0.1-0.6,0.1-0.9
	C95.6,37,92.9,34.2,88.4,31.9z M6.2,79.7V46.1c7.1,6.2,25.6,9.5,43.2,9.5c17.6,0,36-3.3,43.2-9.5v33.6c0,5.8-17.7,12.2-43.2,12.2
	C23.9,91.9,6.2,85.5,6.2,79.7z M15.6,30.1c0.6-0.3,1.2-0.6,1.8-0.9c7.5-3.8,17.3-7,28-9.2c9.2-1.9,17.5-2.7,24.4-2.7
	c11.9,0,19.7,2.4,20.4,6c0.4,2-1.4,4.5-4.9,7.2c-0.5,0.4-1,0.7-1.5,1.1c-0.5,0.3-1,0.7-1.6,1c-0.7,0.4-1.4,0.8-2.2,1.2
	c-1,0.5-2,1.1-3.1,1.6c-4.4,2.1-9.6,4.1-15.3,5.7c-3.6,1.1-7.5,2-11.4,2.8c-16.6,3.4-30.5,3.3-38.2,1.2c-1.8-0.5-3.3-1.1-4.4-1.8
	c-0.4-0.3-0.8-0.6-1.1-0.9c-0.6-0.6-1-1.2-1.1-1.8c-0.4-1.8,1-4,3.9-6.4C10.9,32.9,13,31.5,15.6,30.1z M92.6,40.4
	c0,0.2,0,0.4-0.1,0.6c-0.5,2.1-3.3,4.3-8,6.2c1.8-1.3,2.9-2.7,2.9-4.2c0-0.9-0.3-1.7-1-2.5c-1.1-1.4-3-2.6-5.6-3.7
	c0.2-0.1,0.4-0.2,0.6-0.3c1.5-0.8,2.9-1.7,4.2-2.5C90.1,35.9,92.6,38.2,92.6,40.4C92.6,40.4,92.6,40.4,92.6,40.4z"/>
</svg>
