<?xml version="1.0" encoding="utf-8"?>
<!-- Generator: Adobe Illustrator 22.1.0, SVG Export Plug-In . SVG Version: 6.00 Build 0)  -->
<svg version="1.1" id="Layer_1" xmlns="http://www.w3.org/2000/svg" xmlns:xlink="http://www.w3.org/1999/xlink" x="0px" y="0px"
	 viewBox="0 0 100 125" style="enable-background:new 0 0 100 125;" xml:space="preserve">
<path d="M84,20.4c-0.4-1-1.3-1.7-2.4-1.8l-21.2-4.7c-3.2-1.4-6.7-2.1-10.4-2.1c-3.7,0-7.3,0.8-10.4,2.1l-21.2,4.7
	c-1,0.1-2,0.8-2.4,1.8c-0.4,0.9-0.2,2,0.5,2.7l7.8,8.8c-1.2,2.5-1.8,5.3-1.8,8c0,1.7,0.2,3.3,0.7,4.9l-3.7-1
	c-0.6-0.2-1.3,0.2-1.5,0.9c-0.2,0.6,0.2,1.3,0.9,1.5l5.3,1.4c0.7,1.4,1.5,2.8,2.5,4.1h-8.3c-0.7,0-1.2,0.5-1.2,1.2s0.5,1.2,1.2,1.2
	h10.4c0.8,0.8,1.6,1.5,2.5,2.2l-12.6,3.3c-0.6,0.2-1,0.8-0.9,1.5c0.1,0.5,0.6,0.9,1.2,0.9c0.1,0,0.2,0,0.3,0l11.4-3
	c-7.2,6.5-11.8,16.6-11.8,27.8c0,0.8,0.7,1.5,1.5,1.5c0.8,0,1.5-0.7,1.5-1.5c0,0,0,0,0,0c0-11.8,5.4-22.2,13.6-27.9
	c4.2,2.2,9.3,3.4,14.6,3.4c5.4,0,10.4-1.3,14.6-3.4c8.1,5.7,13.6,16.1,13.6,27.9c0,0,0,0,0,0c0,0.8,0.7,1.5,1.5,1.5
	c0.8,0,1.5-0.7,1.5-1.5c0-11.3-4.6-21.3-11.8-27.8l11.4,3c0.1,0,0.2,0,0.3,0c0.5,0,1-0.4,1.2-0.9c0.2-0.6-0.2-1.3-0.9-1.5l-12.6-3.3
	c0.9-0.7,1.7-1.4,2.5-2.2h10.4c0.7,0,1.2-0.5,1.2-1.2s-0.5-1.2-1.2-1.2h-8.3c1-1.3,1.8-2.7,2.5-4.1l5.3-1.4c0.6-0.2,1-0.8,0.9-1.5
	c-0.2-0.6-0.8-1-1.5-0.9l-3.7,1c0.4-1.6,0.7-3.2,0.7-4.9c0-2.8-0.6-5.5-1.8-8l7.8-8.8C84.2,22.4,84.4,21.3,84,20.4z M74.6,39.9
	c0,2-0.4,4-1.1,5.8l-10.5,2.8c-0.6,0.2-1,0.8-0.9,1.5c0.1,0.5,0.6,0.9,1.2,0.9c0.1,0,0.2,0,0.3,0l8.4-2.2c-0.7,1.1-1.5,2.1-2.4,3.1
	h-6.3c-0.7,0-1.2,0.5-1.2,1.2s0.5,1.2,1.2,1.2h3.5c-0.6,0.4-1.1,0.8-1.7,1.2L64.2,55l-0.5-0.1c-0.6-0.2-1.2,0.2-1.4,0.8
	c0,0,0,0,0,0.1c-0.1,0.3,0,0.6,0.1,0.9c-0.3,0.1-0.6,0.3-0.8,0.4c-3.4,1.5-7.4,2.3-11.6,2.3c-4.2,0-8.1-0.8-11.6-2.3
	c-0.3-0.1-0.6-0.2-0.8-0.4c0.1-0.3,0.2-0.6,0.1-0.9c0,0,0,0,0-0.1c-0.2-0.6-0.8-0.9-1.4-0.8L35.8,55L35,55.2
	c-0.6-0.4-1.2-0.7-1.7-1.2h3.5c0.7,0,1.2-0.5,1.2-1.2s-0.5-1.2-1.2-1.2h-6.3c-0.9-1-1.7-2-2.4-3.1l8.4,2.2c0.1,0,0.2,0,0.3,0
	c0.5,0,1-0.4,1.2-0.9c0.2-0.6-0.2-1.3-0.9-1.5l-10.5-2.8c-0.7-1.8-1.1-3.8-1.1-5.8c0-1.9,0.4-3.8,1-5.6c0.2-0.5,0.4-1,0.7-1.5
	c0.2-0.5,0.5-0.9,0.8-1.4c0.5-0.9,1.2-1.7,1.9-2.5l0.2-0.3l0.1-0.4c1-4,3.6-7.4,7.2-9.8c0.6-0.4,1.2-0.7,1.8-1.1
	c0.6-0.3,1.2-0.6,1.8-0.8c2.8-1.2,5.8-1.8,9.1-1.8c3.2,0,6.3,0.7,9.1,1.8c0.6,0.3,1.2,0.5,1.8,0.8c0.6,0.3,1.2,0.7,1.8,1.1
	c3.6,2.4,6.3,5.8,7.2,9.8l0.1,0.4l0.2,0.3c0.7,0.8,1.3,1.7,1.9,2.5c0.3,0.5,0.5,0.9,0.8,1.4c0.2,0.5,0.5,1,0.7,1.5
	C74.2,36.2,74.6,38,74.6,39.9z M32.5,18.5c-2.5,2.4-4.4,5.4-5.2,8.7c-0.5,0.6-1,1.3-1.4,1.9l-6.8-7.6L32.5,18.5z M72.7,27.3
	c-0.9-3.3-2.7-6.3-5.2-8.7l13.5,3l-6.8,7.6C73.7,28.5,73.2,27.9,72.7,27.3z M55.4,57.3c-0.2,0.4-0.6,0.7-1.1,0.7
	c-0.2,0-0.4,0-0.5-0.1L50,55.9l-3.8,1.9c-0.6,0.3-1.3,0-1.6-0.6c-0.3-0.6,0-1.3,0.6-1.6l3-1.5l0.7-0.3v-1.2v-1.5v-0.3
	c-0.2-0.1-0.3-0.3-0.4-0.5l-1.5-2.2c-0.9-1.3,0-3.1,1.7-3.1h3c1.6,0,2.6,1.8,1.7,3.1l-1.5,2.2c-0.1,0.2-0.3,0.3-0.5,0.5v0.3v1.5v1.2
	l0.7,0.3l3,1.5C55.5,55.9,55.7,56.7,55.4,57.3z M61.9,38.1c0,1.3-1.1,2.4-2.4,2.4s-2.4-1.1-2.4-2.4s1.1-2.4,2.4-2.4
	S61.9,36.8,61.9,38.1z M42.9,38.1c0,1.3-1.1,2.4-2.4,2.4s-2.4-1.1-2.4-2.4s1.1-2.4,2.4-2.4S42.9,36.8,42.9,38.1z"/>
</svg>
