<?xml version="1.0" encoding="utf-8"?>
<!-- Generator: Adobe Illustrator 22.1.0, SVG Export Plug-In . SVG Version: 6.00 Build 0)  -->
<svg version="1.1" id="Layer_1" xmlns="http://www.w3.org/2000/svg" xmlns:xlink="http://www.w3.org/1999/xlink" x="0px" y="0px"
	 viewBox="0 0 100 125" style="enable-background:new 0 0 100 125;" xml:space="preserve">
<path d="M46.5,45.3v-2.1c0-0.4,0.3-0.8,0.8-0.8s0.8,0.3,0.8,0.8v1.9h1.2c0.4,0,0.8,0.3,0.8,0.8s-0.3,0.8-0.8,0.8h-1.3
	C47.1,46.6,46.5,46,46.5,45.3z M41.5,41.9c0.8,0,1.5-0.7,1.5-1.5S42.3,39,41.5,39S40,39.7,40,40.5S40.7,41.9,41.5,41.9z M55,41.9
	c0.8,0,1.5-0.7,1.5-1.5S55.8,39,55,39s-1.5,0.7-1.5,1.5S54.2,41.9,55,41.9z M48.2,51.5c1.8,0,3.7-0.4,3.7-1.6c0-0.4-0.3-0.8-0.8-0.8
	c-0.3,0-0.6,0.2-0.7,0.5c-0.2,0.1-1,0.4-2.2,0.4s-2-0.2-2.2-0.4c-0.1-0.3-0.4-0.5-0.7-0.5c-0.4,0-0.8,0.3-0.8,0.8
	C44.6,51.1,46.5,51.5,48.2,51.5z M46.5,80.5c0-0.6-0.5-1.1-1.1-1.1s-1.1,0.5-1.1,1.1s0.5,1.1,1.1,1.1S46.5,81.2,46.5,80.5z
	 M51.1,79.4c-0.6,0-1.1,0.5-1.1,1.1s0.5,1.1,1.1,1.1s1.1-0.5,1.1-1.1S51.7,79.4,51.1,79.4z M50.2,88.4c-0.1,0.1-0.2,0.1-0.3,0.2
	c-0.2,0.1-0.5,0.2-0.6,0.1c-0.1,0-0.2-0.1-0.3-0.3c0,0,0-0.1-0.1-0.1c0.4-0.1,0.8-0.3,1.1-0.5c0.3-0.2,0.4-0.5,0.4-0.8
	c0-0.7-1-1.4-2.2-1.4S46,86.3,46,87c0,0.3,0.2,0.6,0.4,0.8c0.3,0.2,0.6,0.4,1.1,0.5c0,0,0,0.1-0.1,0.1c-0.1,0.1-0.2,0.2-0.3,0.3
	c-0.2,0.1-0.4,0-0.6-0.1c-0.1-0.1-0.2-0.1-0.3-0.2c-0.2-0.2-0.5-0.1-0.7,0.1c-0.1,0.1-0.1,0.2-0.1,0.4c0,0.1,0.1,0.3,0.2,0.3
	c0.1,0.1,0.3,0.2,0.4,0.2c0.3,0.2,0.7,0.3,1,0.3c0.2,0,0.4,0,0.6-0.1c0.2-0.1,0.4-0.3,0.6-0.5c0,0,0,0,0,0c0,0,0,0,0,0
	c0.1,0.2,0.3,0.4,0.6,0.5c0.2,0.1,0.4,0.1,0.6,0.1c0.3,0,0.6-0.1,1-0.3c0.1-0.1,0.3-0.1,0.4-0.2c0.1-0.1,0.2-0.2,0.2-0.3
	c0-0.1,0-0.3-0.1-0.4C50.7,88.3,50.4,88.2,50.2,88.4z M77.1,94.3c-0.5,1.1-1.5,1.9-2.7,2.2l-10.7,2.9v0.5c0,0.6-0.4,1-1,1h-1.8
	c-0.1,0-0.2,0.1-0.3,0.1l-0.8,0.2c0.1,0.7,0.1,1.3,0.1,2c0,0.4-0.3,0.8-0.8,0.8s-0.8-0.3-0.8-0.8c0,0,0,0,0,0c0-0.6,0-1.1-0.1-1.7
	l-2.4,0.5c-0.1,0-0.2,0-0.4,0c-0.3,0-0.7-0.1-1-0.3c-0.3-0.2-0.5-0.5-0.7-0.8c0-0.1-0.1-0.2-0.1-0.3c0-0.1,0-0.2,0-0.4
	c-0.8,0-1.6-0.6-1.8-1.4c0-0.2,0-0.4,0-0.6c-0.1,0-0.3-0.1-0.4-0.2c-0.4-0.3-0.7-0.6-0.8-1.1c-0.1-0.5,0-0.9,0.2-1.3
	c0.1-0.1,0.1-0.1,0.2-0.2c0,0,0.1-0.1,0.1-0.1c-0.1-0.2-0.2-0.3-0.2-0.5c0,0,0-0.1,0-0.1c0-0.3,0-0.5,0-0.8c0-0.2,0.1-0.3,0.2-0.5
	c0.3-0.4,0.7-0.7,1.1-0.8l2.1-0.5c-0.6-0.6-1.2-1.2-1.8-1.6c-1.3,1.1-2.8,1.7-4.5,1.7c-1.7,0-3.3-0.6-4.5-1.7
	c-0.7,0.4-1.3,1-1.8,1.6l2.1,0.5c0.5,0.1,0.8,0.4,1.1,0.8c0.1,0.2,0.2,0.3,0.2,0.5c0.1,0.2,0.1,0.5,0,0.8c0,0,0,0.1,0,0.1
	c0,0.2-0.1,0.4-0.2,0.5c0,0,0.1,0.1,0.1,0.1c0.4,0.4,0.5,1,0.4,1.5c-0.1,0.5-0.4,0.9-0.8,1.1c-0.1,0.1-0.3,0.1-0.4,0.2
	c0,0.2,0,0.4,0,0.6c-0.2,0.8-0.9,1.4-1.8,1.4c0,0.1,0,0.2,0,0.4c0,0.1-0.1,0.2-0.1,0.3c-0.1,0.3-0.4,0.6-0.7,0.8
	c-0.3,0.2-0.6,0.3-1,0.3c-0.1,0-0.2,0-0.4,0l-2.4-0.5c0,0.6-0.1,1.1-0.1,1.7c0,0,0,0,0,0c0,0.4-0.3,0.8-0.8,0.8s-0.8-0.3-0.8-0.8
	c0-0.7,0-1.3,0.1-2l-0.8-0.2c-0.1,0-0.2-0.1-0.3-0.1h-1.8c-0.6,0-1-0.5-1-1.1v-0.4L22,96.5c-1.2-0.3-2.2-1.1-2.7-2.2
	c-0.5-1.1-0.6-2.3-0.2-3.5l5.9-15l-2.7-1.2c-0.5-0.2-0.8-0.8-0.5-1.4c1.6-3.4,7.5-14.7,12.8-15.1c0.3,0,0.7,0,1,0v0v14.4
	c-0.1,0-0.1,0-0.2,0.1c-0.5,0.2-1,0.6-1.2,1.1c-0.1,0.1-0.1,0.3-0.2,0.4C34,74.4,34,74.6,34,74.8c0,0.4,0.1,0.7,0.3,1
	c0,0.1,0.1,0.2,0.1,0.2c0.4,0.6,1.1,1.1,1.9,1.1c1.3,0,2.3-1,2.3-2.3c0-1.1-0.7-2-1.7-2.2V58.1h2.9c0.3,0,0.5,0.1,0.7,0.3h1.2v-3.9
	c0,0,0,0,0-0.1c-2.9-1.7-4.7-4.5-5.8-7.9c-0.1,0-0.3,0-0.4,0c-1.3,0-2.6-1.1-3.2-2.7c-0.8-2-0.3-4,1.2-4.6c0.1,0,0.1,0,0.2,0
	C33.2,37,31.6,27.6,36.1,22c2.3-2.9,5.8-4.2,10.5-4.1c0.1,0,0.2,0,0.3,0.1c5.9-0.7,10.3,0.6,13.1,3.8c4.9,5.5,3.4,14.9,2.9,17.5
	c0.1,0,0.1,0,0.2,0c0.7,0.3,1.3,1,1.5,1.9c0.2,0.8,0.1,1.8-0.3,2.7c-0.4,0.9-0.9,1.7-1.6,2.2c-0.5,0.4-1.1,0.6-1.6,0.6
	c-0.1,0-0.3,0-0.4,0c-1.1,3.4-2.8,6.2-5.8,8c0,0,0,0,0,0v3.9H56c0.2-0.2,0.4-0.3,0.7-0.3h1.8v4.5c-0.9,0.1-1.7,0.5-2.1,1.2
	c-0.2,0.3-0.3,0.6-0.3,1v4.5c0,1.5,0.7,2.8,1.7,3.7c-0.3,0.1-0.7,0.1-1.1,0.1h-0.2c-0.1-0.3-0.4-0.5-0.7-0.5h-1
	c-0.4,0-0.7,0.3-0.7,0.7V74c0,0.4,0.3,0.7,0.7,0.7h1c0.3,0,0.5-0.2,0.7-0.4h0.2c0.8,0,1.6-0.2,2.3-0.5c0.7,0.3,1.4,0.5,2.2,0.5
	c0,0,0.1,0,0.1,0h0.2c0,0,0,0,0,0c0.1,0.2,0.4,0.4,0.7,0.4h0.3h0h0.6c0,0,0.1,0,0.1,0c0,0,0,0,0.1,0c0.1,0,0.2-0.1,0.3-0.1
	c0.2-0.1,0.3-0.3,0.3-0.6v-0.6c0-0.2-0.1-0.4-0.3-0.6c-0.1-0.1-0.2-0.1-0.4-0.1c0,0-0.1,0-0.1,0h-0.7h0h-0.3c-0.2,0-0.3,0.1-0.5,0.2
	c-0.1,0.1-0.2,0.2-0.2,0.3h-0.2c-0.1,0-0.2,0-0.2,0c-0.2,0-0.3,0-0.5,0c-0.1,0-0.3,0-0.4-0.1c0.1-0.1,0.2-0.2,0.3-0.2
	c0.1-0.1,0.2-0.2,0.3-0.4c0.2-0.2,0.4-0.5,0.5-0.7c0.2-0.3,0.3-0.6,0.4-1c0.1-0.4,0.2-0.9,0.2-1.3v-1.8v-1.1v-0.9v-0.8
	c0-1.1-1-2.1-2.4-2.2v-4.4v-0.1h1c0,0,0,0,0,0c0.3,0,0.7,0,1.1,0c5.3,0.4,11.2,11.7,12.8,15.1c0.2,0.5,0,1.1-0.5,1.4l-2.7,1.2
	l5.9,15C77.7,91.9,77.7,93.2,77.1,94.3z M61,45.1c0.2,0,0.5-0.1,0.7-0.3c0.4-0.3,0.8-0.9,1.1-1.5c0.2-0.6,0.3-1.3,0.2-1.8
	c-0.1-0.2-0.2-0.7-0.5-0.8c-0.1,0-0.2,0-0.2,0c-0.2,0-0.3,0.1-0.5,0.1C61.6,42.3,61.4,43.7,61,45.1z M35.5,45.1
	c-0.3-1.4-0.6-2.8-0.8-4.3c-0.1-0.1-0.3-0.1-0.5-0.1c-0.1,0-0.2,0-0.2,0c-0.6,0.2-0.8,1.4-0.3,2.6C34.1,44.4,34.9,45.1,35.5,45.1z
	 M64.1,90.4l3.5-0.9l-3.5-9V90.4z M54.4,59.9h-0.4c-0.4,0-0.8-0.3-0.8-0.8v-3.9c-1.4,0.6-3.1,1-5.1,1.1c-2-0.1-3.7-0.5-5.1-1.1v3.9
	c0,0.4-0.3,0.8-0.8,0.8H42l5.5,5.3c0.4,0.4,1,0.4,1.4,0L54.4,59.9z M43.1,53.5c0.3,0.2,0.7,0.3,1.1,0.4c0.4,0.2,0.8,0.3,1.3,0.4
	c0.9,0.2,1.8,0.4,2.9,0.4c1.3-0.1,2.5-0.3,3.6-0.6c0.3-0.1,0.6-0.2,1-0.4c0.3-0.1,0.6-0.3,0.8-0.4c2.8-1.5,4.5-4.2,5.6-7.8
	c0.1-0.4,0.2-0.7,0.3-1.1c0.2-1,0.4-2.1,0.6-3.2c0.1-0.4,0.1-0.9,0.2-1.4c0-0.2,0-0.4,0.1-0.7l-0.6-0.9c-4.3-2.3-6.5-6-7.4-8.3
	c-2.5,2.8-6.4,2.8-6.6,2.7c-0.4,0-0.8-0.3-0.9-0.7c0-0.1,0-0.2,0-0.3c-2.3,0.9-4.5,1-4.7,1.1c-0.3,0-0.6-0.1-0.8-0.4
	c-1.2,0.5-2.2,0.8-2.6,0.8c-0.3,0.7-0.6,1.7-0.7,2.8c0.1,1.4,0.2,2.7,0.3,3.9c0,0.5,0.1,0.9,0.2,1.4c0.2,1.1,0.4,2.2,0.6,3.2
	c0.1,0.4,0.2,0.7,0.3,1.1C38.3,49.3,40.1,52.1,43.1,53.5z M37.4,92.8c-0.6-0.1-1.1-0.1-1.6,0.1c-0.2,0.1-0.4,0-0.5,0
	c-0.2-0.1-0.3-0.1-0.5-0.2l-0.8-0.2l-6.3-1.7c-0.2-0.1-0.4-0.2-0.5-0.4c-0.1-0.2-0.1-0.4,0-0.6l4.4-11.2l-5.1-2.1l-5.9,15
	c-0.3,0.7-0.2,1.5,0.1,2.2c0.4,0.7,1,1.2,1.7,1.4l10.3,2.8l0.5,0.1c0.1,0,0.2,0,0.2,0l0.1,0c0.2,0,0.4,0.1,0.5,0.3
	c0.5,0.6,1.2,1.1,2,1.2l0.7,0.1l0.7,0.2l0.7,0.2l2.6,0.5c0.1,0,0.2,0,0.2,0c0,0,0.1-0.1,0.1-0.2c0-0.1-0.1-0.3-0.2-0.3l-2.6-0.5
	L38,99.3c-0.1,0-0.3-0.1-0.4-0.2c-0.1-0.1-0.2-0.2-0.2-0.3c-0.1-0.3,0-0.5,0.1-0.7c0.1-0.1,0.2-0.2,0.4-0.3c0.1-0.1,0.3-0.1,0.4,0
	l0.4,0.1l3.9,0.8c0.1,0,0.3-0.1,0.3-0.2c0-0.1,0-0.2,0-0.2c0,0-0.1-0.1-0.2-0.1l-3.8-0.8c0,0,0,0,0,0c-0.3-0.1-0.5-0.3-0.6-0.6
	c0-0.1,0-0.2,0-0.2c0-0.1,0.1-0.3,0.2-0.4c0,0,0.1-0.1,0.1-0.1c0.2-0.1,0.4-0.2,0.6-0.1l0.2,0l4.3,0.9c0.1,0,0.2,0,0.2,0
	c0,0,0.1-0.1,0.1-0.2c0-0.1-0.1-0.3-0.2-0.3l-4.2-0.9l-0.1,0l-0.3-0.1c-0.1,0-0.3-0.1-0.4-0.2c-0.1-0.1-0.2-0.3-0.2-0.5
	c0-0.1,0-0.1,0-0.2c0-0.2,0.2-0.4,0.3-0.5c0,0,0.1,0,0.1,0c0.2-0.1,0.3-0.1,0.5-0.1l0,0l0.4,0.1l0.3,0.1l3,0.6
	c0.1,0,0.3-0.1,0.3-0.2c0-0.1,0-0.2,0-0.2c0,0-0.1-0.1-0.2-0.1l-1-0.2L37.4,92.8z M28.8,89.5l3.5,0.9v-9.9L28.8,89.5z M55.2,81.5
	l0.5-1.6l1.7,2.6c0.1,0.2,0.3,0.3,0.5,0.3c0.2-0.1,0.5-0.4,0.5-0.9c0-0.8,0-1.5,0.1-2.3c0.1-2.2-3.4-3.3-4.5-3.6l-0.2-0.1
	c-1.2-0.9-3.1-1.4-5.4-1.4s-4.1,0.5-5.4,1.4L42.8,76l-0.1,0c-1.1,0.3-4.7,1.4-4.5,3.6c0,0.8,0.1,1.6,0.1,2.3c0,0.5,0.3,0.9,0.5,0.9
	c0.2,0.1,0.4-0.1,0.5-0.3l1.7-2.6l0.5,1.6c0.2,0.7,0.5,1.3,0.8,1.8l0.1,0.2l0,0.5c0,1.8,0.6,3.4,1.7,4.6c0.2,0.2,0.4,0.4,0.5,0.6
	c0.2,0.2,0.4,0.4,0.7,0.5c0.9,0.6,2,1,3.1,1s2.2-0.4,3.1-1c0.2-0.2,0.4-0.3,0.7-0.5c0.2-0.2,0.4-0.4,0.5-0.6c1-1.2,1.7-2.8,1.7-4.6
	l0-0.5l0.1-0.2C54.7,82.8,55,82.2,55.2,81.5z M75.9,91.3l-5.9-15l-5.1,2.1l4.4,11.2c0.1,0.2,0.1,0.4,0,0.6c-0.1,0.2-0.3,0.3-0.5,0.4
	l-6.3,1.7l-0.8,0.2c-0.2,0-0.4,0.1-0.5,0.2c-0.2,0.1-0.4,0.1-0.5,0c-0.5-0.2-1.1-0.2-1.6-0.1l-5.3,1.2l-1,0.2
	c-0.1,0-0.1,0.1-0.2,0.1s-0.1,0.1,0,0.2c0,0.1,0.2,0.2,0.3,0.2l3-0.6l0.3-0.1l0.4-0.1l0,0c0.2,0,0.4,0,0.6,0.1c0,0,0,0,0,0
	c0.2,0.1,0.3,0.3,0.3,0.5c0,0.1,0,0.2,0,0.3c0,0.2-0.1,0.3-0.2,0.5c-0.1,0.1-0.2,0.2-0.3,0.2l-0.3,0.1l0,0l-4.2,0.9
	c-0.1,0-0.2,0.2-0.2,0.3c0,0.1,0.1,0.1,0.1,0.2c0,0,0.1,0.1,0.2,0l4.3-0.9l0.2,0c0.2-0.1,0.5,0,0.7,0.2c0.1,0.1,0.2,0.2,0.2,0.4
	c0,0.1,0,0.2,0,0.3c0,0.1,0,0.2-0.1,0.3c-0.1,0.2-0.3,0.3-0.5,0.4c0,0,0,0,0,0l-3.8,0.8c-0.1,0-0.1,0.1-0.2,0.1c0,0-0.1,0.1,0,0.2
	c0,0.1,0.2,0.2,0.3,0.2l3.9-0.8l0.4-0.1c0.1,0,0.1,0,0.2,0c0.1,0,0.2,0,0.2,0.1c0.1,0,0.2,0.1,0.3,0.2c0.2,0.2,0.2,0.5,0.2,0.8
	c0,0.1-0.1,0.2-0.2,0.3c-0.1,0.1-0.2,0.2-0.3,0.2l-0.4,0.1l-2.6,0.5c-0.1,0-0.2,0.2-0.2,0.3c0,0.1,0.1,0.1,0.1,0.2
	c0,0,0.1,0.1,0.2,0l2.6-0.5l0.7-0.2l0.7-0.2l0.7-0.1c0.8-0.2,1.5-0.6,2-1.2c0.1-0.2,0.3-0.3,0.5-0.3l0.1,0c0.1,0,0.2,0,0.2,0
	l0.5-0.1L74.1,95c0.8-0.2,1.4-0.7,1.7-1.4C76.2,92.9,76.2,92.1,75.9,91.3z M57.3,64.8v1v3.5c0,1.3,0.7,2.4,1.8,3.1
	c0.4-0.2,0.7-0.5,1-0.9c0.1-0.2,0.2-0.3,0.3-0.5c0.2-0.4,0.3-0.8,0.4-1.2c0-0.2,0-0.4,0-0.6v-1v-1.7v-1.9c0-0.5-0.6-1-1.4-1h-0.7
	C58,63.8,57.3,64.2,57.3,64.8z M35,74.7c0,0,0,0.1,0,0.1c0,0.7,0.6,1.3,1.3,1.3s1.3-0.6,1.3-1.3s-0.6-1.3-1.3-1.3
	c-0.4,0-0.7,0.1-0.9,0.4C35.1,74.1,35,74.4,35,74.7z"/>
</svg>
