<?xml version="1.0" encoding="utf-8"?>
<!-- Generator: Adobe Illustrator 22.1.0, SVG Export Plug-In . SVG Version: 6.00 Build 0)  -->
<svg version="1.1" id="Layer_1" xmlns="http://www.w3.org/2000/svg" xmlns:xlink="http://www.w3.org/1999/xlink" x="0px" y="0px"
	 viewBox="0 0 100 125" style="enable-background:new 0 0 100 125;" xml:space="preserve">
<path d="M83.5,66c2-1.3,3.8-2.9,5.3-4.6l5.1,1.3c0.1,0,0.2,0,0.3,0c0.5,0,1-0.4,1.2-0.9c0.2-0.6-0.2-1.3-0.9-1.5l-4.1-1.1
	c0.9-1.4,1.7-2.9,2.2-4.4h2.2c0.7,0,1.2-0.5,1.2-1.2s-0.5-1.2-1.2-1.2h-1.6c0.3-1.2,0.4-2.5,0.4-3.8c0-0.5,0-1-0.1-1.6l0.7-0.2
	c0.6-0.2,1-0.8,0.9-1.5c-0.2-0.6-0.8-1-1.5-0.9l-0.5,0.1c-0.4-1.9-1.1-3.7-2.1-5.4l1.8-20c0.1-1-0.4-1.9-1.3-2.5c-0.9-0.6-2-0.6-3,0
	L76,22.5c-3.1-1.2-6.4-2-10-2c-3.5,0-6.9,0.7-10,2l-12.7-5.6c-0.9-0.5-2.1-0.5-3,0c-0.9,0.5-1.3,1.5-1.3,2.5l1.8,20
	c-1.2,2.2-2,4.5-2.4,6.9l-6.2-1.6c-0.6-0.2-1.3,0.2-1.5,0.9c-0.2,0.6,0.2,1.3,0.9,1.5l6.6,1.8c0,0,0,0,0,0c0,1.3,0.1,2.5,0.4,3.8
	h-7.6c-0.7,0-1.2,0.5-1.2,1.2s0.5,1.2,1.2,1.2h8.2c0.4,1,0.8,2.1,1.4,3l-9.3,2.5c-0.6,0.2-1,0.8-0.9,1.5c0.1,0.5,0.6,0.9,1.2,0.9
	c0.1,0,0.2,0,0.3,0L42.2,60c1.7,2.3,3.8,4.3,6.3,6c-8.3,6.4-13.8,17.2-13.8,29.5c0,0.8,0.7,1.5,1.5,1.5c0.8,0,1.5-0.7,1.5-1.5
	c0,0,0,0,0,0c0-11.8,5.4-22.2,13.6-27.9C55.6,69.8,60.6,71,66,71s10.4-1.3,14.6-3.4c8.1,5.7,13.6,16.1,13.6,27.9c0,0,0,0,0,0
	c0,0.8,0.7,1.5,1.5,1.5c0.8,0,1.5-0.7,1.5-1.5C97.2,83.2,91.8,72.4,83.5,66z M66,68c-4.2,0-8.1-0.8-11.6-2.3
	c-0.6-0.2-1.1-0.5-1.7-0.8c-0.5-0.3-1-0.5-1.5-0.8c-2.3-1.4-4.3-3-5.9-4.9l4.5-1.2c0.6-0.2,1-0.8,0.9-1.5s-0.8-1-1.5-0.9l-5.4,1.4
	c-0.4-0.7-0.8-1.5-1.2-2.3h7.1c0.7,0,1.2-0.5,1.2-1.2s-0.5-1.2-1.2-1.2h-7.9c-0.2-1-0.4-1.9-0.4-3l8,2.1c0.1,0,0.2,0,0.3,0
	c0.5,0,1-0.4,1.2-0.9c0.2-0.6-0.2-1.3-0.9-1.5L41.5,47c0.1-0.5,0.1-1,0.2-1.4c0.2-1.1,0.6-2.1,1-3.1c0.4-1,0.9-1.9,1.5-2.8
	c0.5-0.7,0.9-1.3,1.5-2l0.2-0.3l0.1-0.4c1.2-4.9,4.9-9,9.9-11.3c0.6-0.3,1.3-0.6,1.9-0.8c0.7-0.3,1.4-0.5,2.2-0.7
	c1.9-0.5,3.9-0.8,5.9-0.8c2,0,4,0.3,5.9,0.8c0.7,0.2,1.5,0.4,2.2,0.7c0.7,0.2,1.3,0.5,1.9,0.8c5,2.4,8.7,6.4,9.9,11.3l0.1,0.4
	l0.2,0.3c0.6,0.6,1,1.3,1.5,2c0.6,0.9,1.1,1.8,1.5,2.8c0.4,1,0.8,2,1,3l-0.1,0l-14.2,3.8c-0.6,0.2-1,0.8-0.9,1.5
	c0.1,0.5,0.6,0.9,1.2,0.9c0.1,0,0.2,0,0.3,0l14-3.7c0,0.3,0,0.5,0,0.8c0,1.3-0.2,2.5-0.5,3.8H76.2c-0.7,0-1.2,0.5-1.2,1.2
	s0.5,1.2,1.2,1.2h13.1c-0.5,1.3-1.2,2.5-2.1,3.6l-10.5-2.8c-0.6-0.2-1.3,0.2-1.5,0.9c-0.2,0.6,0.2,1.3,0.9,1.5l9.3,2.5
	c-1.4,1.4-2.9,2.6-4.7,3.7c-0.5,0.3-1,0.6-1.5,0.8c-0.6,0.3-1.1,0.5-1.7,0.8C74.1,67.2,70.2,68,66,68z M43.6,35.1l-1.4-15.5
	l10.4,4.6C48.3,26.8,45,30.6,43.6,35.1z M88.4,35.1c-1.5-4.5-4.7-8.3-9-10.9l10.4-4.6L88.4,35.1z M68.4,58c-0.2,0.4-0.6,0.7-1.1,0.7
	c-0.2,0-0.4,0-0.5-0.1L63,56.7l-3.8,1.9c-0.6,0.3-1.3,0-1.6-0.6c-0.3-0.6,0-1.3,0.6-1.6l3.7-1.8v-3.1c-0.2-0.1-0.3-0.3-0.5-0.5
	l-1.5-2.2c-0.9-1.3,0-3.1,1.7-3.1h3c1.6,0,2.6,1.8,1.7,3.1l-1.5,2.2c-0.1,0.2-0.3,0.3-0.5,0.5v3.1l3.7,1.8
	C68.5,56.7,68.7,57.4,68.4,58z M74.9,38.9c0,1.3-1.1,2.4-2.4,2.4s-2.4-1.1-2.4-2.4s1.1-2.4,2.4-2.4S74.9,37.5,74.9,38.9z M55.9,38.9
	c0,1.3-1.1,2.4-2.4,2.4s-2.4-1.1-2.4-2.4c0-0.4,0.1-0.7,0.2-1.1c0.3-0.6,0.9-1.1,1.6-1.3c0.2,0,0.4-0.1,0.6-0.1
	C54.8,36.4,55.9,37.5,55.9,38.9z M25.6,47.1c0-9.1-4.2-16.4-9.9-17.5V4.5C15.7,3.7,15,3,14.2,3s-1.5,0.7-1.5,1.5v25.1
	C7,30.7,2.8,38,2.8,47.1c0,6,1.9,11.5,5.1,14.7C8,62,8.1,62.3,7.9,62.6l-2.6,4.8c-0.6,1.2-0.6,2.5,0.1,3.7c0.7,1.1,1.9,1.8,3.2,1.8
	h11.2c1.3,0,2.5-0.7,3.2-1.8c0.7-1.1,0.7-2.5,0.1-3.7l-2.6-4.8c-0.1-0.3-0.1-0.6,0.1-0.8C23.7,58.5,25.6,53,25.6,47.1z M20.4,69.5
	c-0.1,0.1-0.3,0.3-0.6,0.3H8.6c-0.3,0-0.5-0.2-0.6-0.3c-0.1-0.1-0.2-0.4,0-0.7l2.6-4.8c0.8-1.4,0.6-3.2-0.6-4.3
	C7.4,57,5.8,52.2,5.8,47.1c0-0.4,0-0.7,0-1.1c2.1,0.6,5.7,1.4,9.7,1.4c2.4,0,4.8-0.3,7.1-1.1c0,0.3,0,0.5,0,0.8
	c0,5.1-1.6,10-4.2,12.6c-1.1,1.2-1.4,2.9-0.6,4.3l2.6,4.8C20.6,69.1,20.5,69.4,20.4,69.5z M12.7,32.7c0.5-0.2,1-0.3,1.5-0.3
	c0,0,0,0,0,0c0.5,0,1,0.1,1.5,0.3c3.1,1,5.7,5.2,6.6,10.5c-1,0.4-2,0.7-3.1,0.9c-2.6,0.5-5.4,0.3-7.8,0c-2.2-0.3-4.1-0.8-5.2-1.1
	C7,37.8,9.6,33.7,12.7,32.7z M11.8,37.4l0.7-0.7L11.8,36c-0.5-0.5-0.5-1.2,0-1.7c0.3-0.3,0.6-0.4,0.9-0.3c0.3,0,0.5,0.1,0.7,0.3
	l0.7,0.7l0.7-0.7c0.2-0.2,0.5-0.3,0.8-0.3c0.3,0,0.7,0.1,0.9,0.3c0.5,0.5,0.5,1.2,0,1.7l-0.7,0.7l0.7,0.7c0.5,0.5,0.5,1.2,0,1.7
	c-0.2,0.2-0.5,0.4-0.8,0.4s-0.6-0.1-0.8-0.4l-0.7-0.7l-0.7,0.7c-0.2,0.2-0.5,0.4-0.8,0.4s-0.6-0.1-0.8-0.4
	C11.3,38.6,11.3,37.9,11.8,37.4z"/>
</svg>
