<?xml version="1.0" encoding="utf-8"?>
<!-- Generator: Adobe Illustrator 22.1.0, SVG Export Plug-In . SVG Version: 6.00 Build 0)  -->
<svg version="1.1" id="Layer_1" xmlns="http://www.w3.org/2000/svg" xmlns:xlink="http://www.w3.org/1999/xlink" x="0px" y="0px"
	 viewBox="0 0 100 125" style="enable-background:new 0 0 100 125;" xml:space="preserve">
<path d="M89.1,92.6H61.9v-8h13.3c0.8,0,1.5-0.7,1.5-1.5v-3c0-0.8-0.7-1.5-1.5-1.5H61.9V62.7h20.9c0.8,0,1.5-0.7,1.5-1.5v-3
	c0-0.8-0.7-1.5-1.5-1.5H61.9V35.9h24.8c0.8,0,1.5-0.7,1.5-1.5v-3c0-0.8-0.7-1.5-1.5-1.5H72.3v-9.7c0.3,0.2,0.7,0.3,1.1,0.3
	c0.7,0,1.4-0.3,1.9-0.8c0.9-1,0.8-2.6-0.2-3.5l-16.8-15c-0.9-0.8-2.4-0.8-3.3,0l-16.8,15c-1,0.9-1.1,2.5-0.2,3.5
	c0.8,0.9,2,1.1,3,0.6v9.7H26.4c-0.8,0-1.5,0.7-1.5,1.5v3c0,0.8,0.7,1.5,1.5,1.5h2v17.5H10.9c-0.8,0-1.5,0.7-1.5,1.5v3
	c0,0.8,0.7,1.5,1.5,1.5h12.4v12.7H17c-0.8,0-1.5,0.7-1.5,1.5v3c0,0.8,0.7,1.5,1.5,1.5h13.6v14.5H14.1c-0.8,0-1.5,0.7-1.5,1.5V98
	c0,0.8,0.7,1.5,1.5,1.5h75c0.8,0,1.5-0.7,1.5-1.5v-3.9C90.6,93.3,89.9,92.6,89.1,92.6z M60.9,29.9h-8.7v-9.5c0-2.1,1.7-3.8,3.8-3.8
	h1.2c2.1,0,3.8,1.7,3.8,3.8V29.9z M42.1,78.1h9.1v14.5h-9.1V78.1z M58.9,92.6h-4.6V78.1h1.5c0.8,0,1.5-0.7,1.5-1.5v-3
	c0-0.8-0.7-1.5-1.5-1.5h-1.5V35.9h4.6V92.6z M31.4,43.9h8.7v1.5h-8.7V43.9z M40.1,41.4h-8.7v-1.5h8.7V41.4z M31.4,47.9h8.7v1.5h-8.7
	V47.9z M43.1,35.9h8.1v36.2H33V59.4h12.4c0.8,0,1.5-0.7,1.5-1.5v-3c0-0.8-0.7-1.5-1.5-1.5h-2.2V35.9z M26.3,59.4H30v12.1h-3.7V59.4z
	 M33.5,78.1h5.6v14.5h-5.6V78.1z M56.5,6.3l9.8,8.7l2.9,2.6v12.2h-5.8v-9.5c0-2.3-1.2-4.2-3-5.3c-0.9-0.6-2.1-0.9-3.3-0.9h-1.2
	c-1.2,0-2.3,0.3-3.3,0.9c-1.8,1.1-3,3.1-3,5.3v9.5h-5.8V17.7l2.9-2.6L56.5,6.3z M40.1,35.9v1.5h-8.7v-1.5H40.1z M31.4,51.9h8.7v1.5
	h-8.7V51.9z"/>
</svg>
