<?xml version="1.0" encoding="utf-8"?>
<!-- Generator: Adobe Illustrator 22.1.0, SVG Export Plug-In . SVG Version: 6.00 Build 0)  -->
<svg version="1.1" id="Layer_1" xmlns="http://www.w3.org/2000/svg" xmlns:xlink="http://www.w3.org/1999/xlink" x="0px" y="0px"
	 viewBox="0 0 100 125" style="enable-background:new 0 0 100 125;" xml:space="preserve">
<path d="M72,59.8c-0.3-0.4-0.8-0.5-1.2-0.5c-3.4,0.2-7.1,2.3-9.7,4.4c-4.2-2.4-10-5-15.1-5c-6.2,0-13.2,3.9-16.2,6.7
	c-0.8,0.8-1.3,1.9-1.3,3.1c0,1.2,0.5,2.4,1.3,3.1c3,2.8,10,6.7,16.2,6.7c5,0,10.8-2.6,15.1-5c2.7,2,6.3,4.2,9.7,4.4
	c0.5,0,0.9-0.2,1.2-0.5c0.3-0.4,0.4-0.8,0.3-1.3c-0.3-1.5-1.2-5.9-1.2-7.3c0-1.5,0.9-5.8,1.2-7.4C72.4,60.6,72.3,60.2,72,59.8z
	 M40,74.1c0.8-1.5,1.1-3.7,1.1-5.6c0-2-0.3-4.1-1.1-5.6c2-0.7,4.1-1.2,6-1.2c4.7,0,10.4,2.8,14.4,5.1c0.5,0.3,1.2,0.3,1.7-0.1
	c2.5-2,4.8-3.3,6.8-4c-0.4,1.9-0.8,4.5-0.8,5.8c0,1.3,0.5,3.9,0.8,5.8c-2-0.6-4.4-2-6.8-4c-0.5-0.4-1.2-0.4-1.7-0.1
	c-4,2.3-9.7,5.1-14.4,5.1C44.1,75.3,42,74.8,40,74.1z M31.8,69.4c-0.2-0.2-0.4-0.6-0.4-0.9c0-0.4,0.1-0.7,0.4-0.9
	c1.2-1.1,3.1-2.4,5.4-3.5c0.3,0.5,0.9,2.1,0.9,4.4c0,2.5-0.5,4-0.9,4.4C34.9,71.8,33,70.5,31.8,69.4z M89.4,27.3
	c3.7-3.1,5.3-6.2,4.7-9.2c-2-9.7-26.4-10.2-48.4-5.7C33.9,14.9,23,18.6,15.1,22.9C6.6,27.5,2.6,32.2,3.5,36.6
	c0.1,0.7,0.4,1.3,0.7,1.8v36.6C4.2,85,28,90.3,50.4,90.3S96.6,85,96.6,75.1V36.7c0-0.3,0.1-0.6,0.1-0.9
	C96.6,32.4,93.9,29.5,89.4,27.3z M7.2,75.1V41.5c7.1,6.2,25.6,9.5,43.2,9.5c17.6,0,36-3.3,43.2-9.5v33.6c0,5.8-17.7,12.2-43.2,12.2
	C24.9,87.3,7.2,80.9,7.2,75.1z M16.6,25.5c0.6-0.3,1.2-0.6,1.8-0.9c7.5-3.8,17.3-7,28-9.2c9.2-1.9,17.5-2.7,24.4-2.7
	c11.9,0,19.7,2.4,20.4,6c0.4,2-1.4,4.5-4.9,7.2c-0.5,0.4-1,0.7-1.5,1.1c-0.5,0.3-1,0.7-1.6,1c-0.7,0.4-1.4,0.8-2.2,1.2
	c-1,0.5-2,1.1-3.1,1.6c-4.4,2.1-9.6,4.1-15.3,5.7c-3.6,1.1-7.5,2-11.4,2.8c-16.6,3.4-30.5,3.3-38.2,1.2c-1.8-0.5-3.3-1.1-4.4-1.8
	c-0.4-0.3-0.8-0.6-1.1-0.9c-0.6-0.6-1-1.2-1.1-1.8c-0.4-1.8,1-4,3.9-6.4C11.9,28.3,14,26.9,16.6,25.5z M93.6,35.8
	c0,0.2,0,0.4-0.1,0.6c-0.5,2.1-3.3,4.3-8,6.2c1.8-1.3,2.9-2.7,2.9-4.2c0-0.9-0.3-1.7-1-2.5c-1.1-1.4-3-2.6-5.6-3.7
	c0.2-0.1,0.4-0.2,0.6-0.3c1.5-0.8,2.9-1.7,4.2-2.5C91.1,31.3,93.6,33.6,93.6,35.8C93.6,35.7,93.6,35.8,93.6,35.8z"/>
</svg>
