<?xml version="1.0" encoding="utf-8"?>
<!-- Generator: Adobe Illustrator 22.1.0, SVG Export Plug-In . SVG Version: 6.00 Build 0)  -->
<svg version="1.1" id="Layer_1" xmlns="http://www.w3.org/2000/svg" xmlns:xlink="http://www.w3.org/1999/xlink" x="0px" y="0px"
	 viewBox="0 0 612 792" style="enable-background:new 0 0 612 792;" xml:space="preserve">
<g>
	<path d="M529.8,131.8c-2.7-1.2-5.5-1.2-8.3-1.2c-55,0-110,0-165,0c-54.7,0-109.3,0-164,0c-1.8,0-3.7-0.1-5.5,0.1
		c-7.4,0.8-11.4,6-10.5,13.4c1.6,13.2,4.3,26.4,4.4,39.7c0.5,60.2,0.1,120.3,0.2,180.5c0,3.2-0.5,4.1-4.1,3.8
		c-32.2-2.4-64.3-1.2-95.8,6.6c-12.6,3.1-24.9,7.3-35.1,15.9c-5.7,4.9-9.3,10.9-9,18.6c0.1,3,0.4,6,0.4,9c0,55.5,0.1,111-0.1,166.5
		c0,9.4,3.5,16.3,10.7,21.8c6.7,5.1,14.2,8.6,22.2,11.1c32,10.2,65,12.1,98.3,10.4c21-1,41.8-3.7,61.8-10.5
		c10-3.4,19.7-7.5,26.7-15.8c2.3-2.7,4.5-3.6,8-3.6c82.5,0.1,165,0.1,247.5,0.1c13.7,0,18.9-5.3,18.9-19.1c0-130,0-260,0-390
		c0-5,0.3-10,1-14.9c1.4-10.4,2.6-20.8,3.8-31.2C537,138.1,534.4,133.8,529.8,131.8z M466.8,164.2c0-3.6,0.9-7.3,0.7-10.9
		c-0.2-4.1,1.5-5.2,5.2-4.6c1.1,0.2,2.3,0,3.5,0c7.9,0,7.9,0,6.9,8.2c-0.6,4.9-1.1,9.9-1.3,14.9c-0.1,2.8-1.2,3.8-4,3.6
		c-3.8-0.3-8.6,1.1-11.1-0.8C464.3,172.7,466.8,167.8,466.8,164.2z M432.6,172c0.2-2.3,0-4.7,0-7c0.1,0,0.3,0,0.4,0
		c0-1.3-0.1-2.7,0-4c0.6-13.4,0.9-13.5,14.3-12.4c1.9,0.2,2.6,0.6,2.4,2.6c-0.7,7.3-0.1,15-2.2,21.8c-1.6,5.2-8,1.3-12.1,2.3
		C432.9,175.8,432.4,174.3,432.6,172z M398.9,162.2c0.2,0,0.4,0,0.6,0c0-3.3,0.1-6.6,0-9.9c-0.1-2.6,0.5-4,3.5-3.7
		c4.1,0.4,9.4-1.7,12,0.8c2.5,2.3-0.1,7.5,0,11.4c0,1-0.1,2-0.1,3c-0.4,12.9-0.4,12.9-13.6,11.6c-2-0.2-2.5-0.8-2.5-2.7
		C399,169.2,398.9,165.7,398.9,162.2z M367.6,148.7c0.3,0,0.7,0,1,0c4.2,0.3,9.9-1.9,12.3,1c2,2.5,0.4,7.9,0.4,12.1
		c-0.1,0-0.2,0-0.3,0c0,0.8,0,1.7,0,2.5c-0.3,12-1.1,12.7-13.3,11.1c-1.6-0.2-2.4-0.6-2.4-2.4c0-7.3,0-14.7,0-22
		C365.3,149.4,365.9,148.5,367.6,148.7z M331.8,149.4c4.1-2.1,9.4-0.7,14.2-0.7c1.7,0,1.3,1.6,1.3,2.7c0,3.3,0,6.7,0,10
		c0,3.7-0.1,7.3,0,11c0.1,2.1-0.7,3.1-2.9,2.9c-0.2,0-0.3,0-0.5,0c-12,0.6-12,0.6-12.4-11.5c0-1.7-0.2-3.3-0.1-5
		C331.6,155.6,329.6,150.6,331.8,149.4z M300.3,148.6c12.8-0.2,12.8-0.4,13.3,12.7c0,0.3,0,0.7,0,1h0.1c0,0.7,0,1.3,0,2
		c0.3,11.2,0.3,11-10.8,11.2c-3.7,0.1-4.9-1-4.9-4.7c0-6.1-0.4-12.3-0.9-18.4C296.8,149.7,297.2,148.7,300.3,148.6z M266.1,148.6
		c13-0.2,13-0.3,13.6,12.7c0,0.3,0,0.7,0,1h0.1c0,0.8,0,1.7,0,2.5c0.3,10.5,0.3,10.4-10.4,10.6c-3.6,0.1-4.9-0.8-5-4.6
		c-0.1-6.1-0.9-12.3-1.5-18.4C262.7,149.9,262.9,148.6,266.1,148.6z M231.6,148.6c13.4-0.5,13.4-0.6,14.2,12.8c0.2,3,0.2,6,0.7,8.9
		c0.6,3.7,0,5.8-4.4,5c-1.1-0.2-2.3,0-3.5,0c-7.3,0-7.3,0-8-7.2c-0.5-5.5-1.1-10.9-1.8-16.3C228.6,149.5,229,148.7,231.6,148.6z
		 M200,148.7c1,0.1,2,0,3,0c7.3,0,7.3,0,8.2,7.3c0.6,5.1,1.1,10.3,1.6,15.4c0.1,1,0.4,2.6-0.1,2.9c-4,2.1-8.3,0.7-12.5,1
		c-2.5,0.2-2.2-2-2.4-3.6c-0.7-6.1-1.1-12.3-2.3-18.3C194.8,149,196.4,148.2,200,148.7z M239.6,593.7c-9.9,6.1-21,9.2-32.2,11.4
		c-42.7,8.2-85.3,8.1-127.6-3.4c-6.9-1.9-13.5-4.5-19.6-8.4c-3.2-2-4.7-4.5-4.7-8.6c0.2-20.8,0.1-41.6,0.1-61.8
		c63.1,21.6,125.9,21.4,189.4,0.1c0,20.6,0,42.1,0,63.6C245,590.5,242.2,592.1,239.6,593.7z M239.5,503.8
		c-9.9,5.9-20.7,9.1-31.8,11.2c-42.9,8.3-85.7,8.2-128.1-3.4c-6.7-1.8-13.2-4.4-19.2-8.2c-3.3-2.1-5.1-4.6-5-9
		c0.2-20.6,0.1-41.3,0.1-62.3c60.2,22.5,123.7,22.5,189.4,0.1c0,7.9,0,15.7,0,23.4c0,12.8-0.2,25.7,0.1,38.5
		C245.2,499,243.2,501.6,239.5,503.8z M238.9,414.5c-7.4,4.3-15.4,7-23.6,9.1c-28.4,7.2-57.2,8.4-86.2,6.6
		c-19-1.2-37.7-3.9-55.7-10.4c-4.4-1.6-8.7-3.4-12.6-5.9c-7.2-4.6-7.2-7.5,0.2-12c6.1-3.8,12.9-6.2,19.7-8.2
		c22.7-6.7,46.1-8.4,71-8.7c25.1,0.5,51.4,2.3,76.6,11.6c3.7,1.4,7.4,3,10.8,5C247.3,406.3,247.2,409.6,238.9,414.5z M513.6,386.9
		c0,62.7,0,125.3,0.1,188c0,4.3-0.8,5.6-5.4,5.6c-80-0.2-160-0.2-240,0c-4.3,0-5.5-0.9-5.5-5.4c0.2-53.3-0.5-106.7,0.5-160
		c0.3-16-6.8-24.8-19.5-31.4c-12.3-6.3-25.4-9.7-38.9-11.9c-4.3-0.7-5.9-1.9-5.9-6.7c0.2-55.5,0.2-111,0-166.5
		c0-4.6,1.3-5.4,5.6-5.4c101.2,0.1,202.3,0.1,303.5,0c4.5,0,5.8,1.1,5.7,5.7C513.6,261.6,513.6,324.2,513.6,386.9z M514.8,171.9
		c-0.2,2.4-1,3.4-3.6,3.5c-11.9,0.5-11.9,0.6-10.6-11.1c0.4-4,1-7.9,1.1-11.9c0.1-2.7,0.8-3.9,3.7-3.7c4,0.2,7.9,0.1,12.1,0.1
		C516.5,156.7,515.6,164.3,514.8,171.9z"/>
	<path d="M440.1,351.9c1.3-13.1,1.7-26.3,4.2-39.2c3.3-16.9-14-29.8-30.4-22.6c-8.5,3.8-17.3,6.9-25.9,10.4
		c-2.7,1.1-5.2,1.3-8.2,0.6c-15.8-4-31.6-4-47.4,0.1c-2.6,0.7-4.8,0.5-7.2-0.5c-9.4-3.8-18.7-7.7-28.2-11.2
		c-14.6-5.4-30.2,5.1-28.8,19.5c1.3,14.1,2.9,28.1,4.4,42.2c0.2,2,0.4,3.8-0.6,5.8c-13,26.6-3.2,53.8,18.4,71.2
		c19.2,15.5,41.6,21.6,65.9,22c24.5-0.4,47-6.6,66.3-22.2c21.4-17.4,31-44.4,18.1-70.8C439.8,355.4,439.9,353.7,440.1,351.9z
		 M416.1,409.9c-13.5,13.7-30.5,19.6-49.2,21.8c-3.5,0.4-7,0.4-9.7,0.6c-20-0.3-38-4.7-53.8-16.3c-16.4-12.1-26.2-33.4-13.5-54.3
		c1.4-2.3,1.1-4.8,0.9-7.3c-1.4-14.4-2.8-28.8-4.3-43.3c-0.5-5,0.7-6.1,5.5-4.2c10.4,4,20.7,8.1,31,12.4c3.4,1.4,6.6,1.6,10.1,0.5
		c15.4-4.8,30.8-4.9,46.2,0c3.5,1.1,6.7,1,10.1-0.4c10.1-4.2,20.3-8.2,30.5-12.2c5.5-2.2,6.6-1.3,6,4.3c-1.4,14.4-2.8,28.8-4.3,43.3
		c-0.3,2.7-0.2,5.3,1.3,7.7C433.1,379.2,428.5,397.3,416.1,409.9z"/>
</g>
</svg>
