<?xml version="1.0" encoding="utf-8"?>
<!-- Generator: Adobe Illustrator 22.1.0, SVG Export Plug-In . SVG Version: 6.00 Build 0)  -->
<svg version="1.1" id="Layer_1" xmlns="http://www.w3.org/2000/svg" xmlns:xlink="http://www.w3.org/1999/xlink" x="0px" y="0px"
	 viewBox="0 0 100 125" style="enable-background:new 0 0 100 125;" xml:space="preserve">
<path d="M81.8,48.1c0.7,0,1.2-0.5,1.2-1.2s-0.5-1.2-1.2-1.2h-4.6c0.3-1.2,0.4-2.5,0.4-3.8c0-0.3,0-0.5,0-0.8l3.7-1
	c0.6-0.2,1-0.8,0.9-1.5c-0.2-0.6-0.8-1-1.5-0.9l-3.3,0.9c-0.4-2.1-1.1-4.2-2.3-6.1l1.8-20c0.1-1-0.4-1.9-1.3-2.5c-0.9-0.5-2-0.6-3,0
	L60,15.7c-3.1-1.2-6.4-2-10-2s-6.9,0.7-10,2l-12.7-5.6c-0.9-0.5-2.1-0.5-3,0c-0.9,0.5-1.3,1.5-1.3,2.5l1.8,20
	c-1.1,1.9-1.9,4-2.3,6.1l-3.3-0.9c-0.6-0.2-1.3,0.2-1.5,0.9c-0.2,0.6,0.2,1.3,0.9,1.5l3.7,1c0,0.3,0,0.5,0,0.8
	c0,1.3,0.1,2.5,0.4,3.8h-4.6c-0.7,0-1.2,0.5-1.2,1.2s0.5,1.2,1.2,1.2h5.2c0.5,1.3,1.1,2.5,1.8,3.7l-6.7,1.8c-0.6,0.2-1,0.8-0.9,1.5
	c0.1,0.5,0.6,0.9,1.2,0.9c0.1,0,0.2,0,0.3,0l7.6-2c1.6,2,3.5,3.8,5.8,5.3c-8.3,6.4-13.8,17.2-13.8,29.5c0,0.8,0.7,1.5,1.5,1.5
	c0.8,0,1.5-0.7,1.5-1.5c0,0,0,0,0,0c0-11.8,5.4-22.2,13.6-27.9c4.2,2.2,9.3,3.4,14.6,3.4s10.4-1.3,14.6-3.4
	c8.1,5.7,13.6,16.1,13.6,27.9c0,0,0,0,0,0c0,0.8,0.7,1.5,1.5,1.5c0.8,0,1.5-0.7,1.5-1.5c0-12.3-5.5-23.1-13.8-29.5
	c2.3-1.5,4.2-3.3,5.8-5.3l7.6,2c0.1,0,0.2,0,0.3,0c0.5,0,1-0.4,1.2-0.9c0.2-0.6-0.2-1.3-0.9-1.5l-6.7-1.8c0.7-1.2,1.3-2.4,1.8-3.7
	H81.8z M63.2,48.1h10.1c-0.4,1-1,2-1.6,2.9l-7.9-2.1c-0.6-0.2-1.3,0.2-1.5,0.9c-0.2,0.6,0.2,1.3,0.9,1.5l6.9,1.8
	c-1.5,1.6-3.3,3.1-5.3,4.3c-0.5,0.3-1,0.6-1.5,0.8c-0.6,0.3-1.1,0.5-1.7,0.8c-3.4,1.5-7.4,2.3-11.6,2.3c-4.2,0-8.1-0.8-11.6-2.3
	c-0.6-0.2-1.1-0.5-1.7-0.8c-0.5-0.3-1-0.5-1.5-0.8c-2-1.2-3.8-2.7-5.3-4.3l6.9-1.8c0.6-0.2,1-0.8,0.9-1.5c-0.2-0.6-0.8-1-1.5-0.9
	L28.3,51c-0.6-0.9-1.2-1.9-1.6-2.9h10.1c0.7,0,1.2-0.5,1.2-1.2s-0.5-1.2-1.2-1.2H25.9c-0.3-1.2-0.5-2.5-0.5-3.8c0,0,0,0,0,0l11,2.9
	c0.1,0,0.2,0,0.3,0c0.5,0,1-0.4,1.2-0.9c0.2-0.6-0.2-1.3-0.9-1.5l-11.4-3c0-0.2,0.1-0.4,0.1-0.7c0.2-1.1,0.6-2.1,1-3.1
	c0.4-1,0.9-1.9,1.5-2.8c0.5-0.7,0.9-1.3,1.5-2l0.2-0.3l0.1-0.4c1.2-4.9,4.9-9,9.9-11.3c0.6-0.3,1.3-0.6,1.9-0.8
	c0.7-0.3,1.4-0.5,2.2-0.7C46,17,48,16.8,50,16.8c2,0,4,0.3,5.9,0.8c0.7,0.2,1.5,0.4,2.2,0.7c0.7,0.2,1.3,0.5,1.9,0.8
	c5,2.4,8.7,6.4,9.9,11.3l0.1,0.4l0.2,0.3c0.6,0.6,1,1.3,1.5,2c0.6,0.9,1.1,1.8,1.5,2.8c0.4,1,0.8,2.1,1,3.1c0,0.2,0.1,0.4,0.1,0.7
	l-11.4,3c-0.6,0.2-1,0.8-0.9,1.5c0.1,0.5,0.6,0.9,1.2,0.9c0.1,0,0.2,0,0.3,0l11-2.9c0,0,0,0,0,0c0,1.3-0.2,2.5-0.5,3.8H63.2
	c-0.7,0-1.2,0.5-1.2,1.2S62.6,48.1,63.2,48.1z M27.6,28.4l-1.4-15.5l10.4,4.6C32.3,20.1,29,23.9,27.6,28.4z M72.4,28.4
	c-1.5-4.5-4.7-8.3-9-10.9l10.4-4.6L72.4,28.4z M43.1,34.9c-1.3-0.8-5.1-0.1-7.4,0.7c-0.1,0-0.3,0.1-0.4,0.1c-0.5,0-1-0.3-1.1-0.8
	c-0.2-0.6,0.1-1.3,0.7-1.5c1.1-0.4,6.8-2.3,9.5-0.5c0.6,0.4,0.7,1.1,0.3,1.7C44.4,35.1,43.6,35.2,43.1,34.9z M64.3,35.6
	c-2.3-0.8-6.1-1.6-7.4-0.7c-0.6,0.4-1.3,0.2-1.7-0.3c-0.4-0.6-0.2-1.3,0.3-1.7c2.7-1.8,8.4,0.1,9.5,0.5c0.6,0.2,1,0.9,0.7,1.5
	c-0.2,0.5-0.6,0.8-1.1,0.8C64.6,35.7,64.5,35.6,64.3,35.6z M55.9,47.7c0.4,0.5,0.4,1.2-0.1,1.7c-0.2,0.1-1.4,1.2-3,1.2
	c-0.3,0-0.6,0-0.9-0.1c-0.7-0.2-1.4-0.6-1.9-1.3c-0.5,0.7-1.2,1.1-1.9,1.3c-0.3,0.1-0.6,0.1-0.9,0.1c-1.6,0-2.9-1.1-3-1.2
	c-0.5-0.4-0.5-1.2-0.1-1.7c0.4-0.5,1.2-0.5,1.7-0.1c0.2,0.2,1.1,0.8,1.7,0.6c0.5-0.1,0.9-0.7,1.3-1.7v-1.7c-0.2-0.1-0.3-0.3-0.4-0.4
	l-1.5-2.2c-0.9-1.3,0-3.1,1.7-3.1h3c1.6,0,2.6,1.8,1.7,3.1l-1.5,2.2c-0.1,0.2-0.3,0.3-0.4,0.4v1.7c0.4,1,0.8,1.6,1.3,1.7
	c0.6,0.2,1.5-0.4,1.7-0.6C54.7,47.2,55.5,47.2,55.9,47.7z"/>
</svg>
