<?xml version="1.0" encoding="utf-8"?>
<!-- Generator: Adobe Illustrator 22.1.0, SVG Export Plug-In . SVG Version: 6.00 Build 0)  -->
<svg version="1.1" id="Layer_1" xmlns="http://www.w3.org/2000/svg" xmlns:xlink="http://www.w3.org/1999/xlink" x="0px" y="0px"
	 viewBox="0 0 100 125" style="enable-background:new 0 0 100 125;" xml:space="preserve">
<path d="M43.8,52.9c4.1-0.7,8.3-0.7,12.4,0c0.7,0.1,1.4-0.1,1.9-0.5c0.5-0.4,0.8-1.1,0.8-1.8v-4.2c0-1.3-1-2.4-2.2-2.7
	c-4.5-0.8-9-0.8-13.5,0C42,44,41,45.1,41,46.4v4.2c0,0.7,0.3,1.4,0.8,1.8c0.4,0.3,0.9,0.5,1.5,0.5C43.5,52.9,43.6,52.9,43.8,52.9z
	 M44,46.7c4-0.7,8-0.7,11.9,0v3.1c-4-0.6-8-0.6-11.9,0V46.7z M16.1,57c2.6-0.4,5.1-0.4,7.7,0c0.6,0.1,1.3-0.1,1.7-0.5
	c0.4-0.4,0.7-0.9,0.7-1.5c0,0,0,0,0-0.1v-2.2c0-0.5-0.2-1-0.4-1.4c-0.4-0.5-0.9-1-1.6-1.1c-2.8-0.5-5.7-0.5-8.5,0
	c-1.1,0.2-2,1.3-2,2.4v2.2c0,0.6,0.3,1.2,0.7,1.6c0.4,0.3,0.9,0.5,1.4,0.5C15.9,57,16,57,16.1,57z M23.8,52.8v1.7
	c-2.5-0.4-5.1-0.4-7.6,0l0-1.6c1.3-0.2,2.6-0.3,4-0.3C21.3,52.5,22.6,52.6,23.8,52.8z M93.9,58.7c-0.8,0-1.5,0.7-1.5,1.5v11.9h-5.8
	v-7.6c0-1.6-0.5-3.2-1.5-4.4c-0.7-1-1.7-1.7-2.9-2.2c-0.7-0.3-1.5-0.4-2.3-0.4c-0.8,0-1.5,0.2-2.2,0.4c-1.1,0.4-2.1,1.2-2.8,2.2
	c-0.9,1.2-1.4,2.7-1.4,4.4v7.6h-5.8V60.2c0-0.8-0.7-1.5-1.5-1.5s-1.5,0.7-1.5,1.5v11.9h-8v-12c0-3.1-2.2-5.6-5-5.6h-3.3
	c-2.8,0-5,2.5-5,5.6v12h-8V60.2c0-0.8-0.7-1.5-1.5-1.5s-1.5,0.7-1.5,1.5v11.9h-5.8v-7.6c0-1.6-0.5-3.2-1.5-4.4
	c-0.7-1-1.7-1.7-2.9-2.2c-0.7-0.3-1.5-0.4-2.3-0.4c-0.8,0-1.5,0.2-2.2,0.4c-1.1,0.4-2.1,1.2-2.8,2.2c-0.9,1.2-1.4,2.7-1.4,4.4v7.6
	H7.6V60.2c0-0.8-0.7-1.5-1.5-1.5s-1.5,0.7-1.5,1.5v12.8c0,1.1,1,2.1,2.3,2.1h86.2c1.2,0,2.3-0.9,2.3-2.1V60.2
	C95.4,59.4,94.7,58.7,93.9,58.7z M23.5,72.1h-7.1v-7.6c0-2.2,1.6-3.9,3.6-3.9c1.9,0,3.5,1.8,3.5,3.9V72.1z M83.5,72.1h-7.1v-7.6
	c0-2.2,1.6-3.9,3.6-3.9c1.9,0,3.5,1.8,3.5,3.9V72.1z M98.8,56.6L81.3,41.2c-0.8-0.7-1.9-0.7-2.6,0l-4.8,4.2L51,25.2
	c-0.6-0.5-1.4-0.5-2,0L26.1,45.4l-4.8-4.2c-0.8-0.7-1.9-0.7-2.6,0L1.2,56.6c-0.8,0.7-0.9,2-0.2,2.8c0.7,0.8,2,0.9,2.8,0.2L20,45.3
	l16.1,14.2c0.4,0.3,0.9,0.5,1.3,0.5c0.6,0,1.1-0.2,1.5-0.7c0.7-0.8,0.7-2.1-0.2-2.8L32.4,51L50,35.5L67.6,51l-6.4,5.6
	c-0.8,0.7-0.9,2-0.2,2.8c0.4,0.4,0.9,0.7,1.5,0.7c0.5,0,0.9-0.2,1.3-0.5L80,45.3l16.1,14.2c0.8,0.7,2.1,0.6,2.8-0.2
	C99.7,58.6,99.6,57.3,98.8,56.6z M70.6,48.3l-19.3-17c-0.8-0.7-1.9-0.7-2.6,0l-19.3,17l-1-0.9l21.6-19l21.6,19L70.6,48.3z M75.8,57
	c0.1,0,0.2,0,0.4,0c2.6-0.4,5.1-0.4,7.7,0c0.6,0.1,1.3-0.1,1.7-0.5c0.5-0.4,0.7-1,0.7-1.6v-2.2c0-1.2-0.9-2.2-2-2.4
	c-2.8-0.5-5.7-0.5-8.5,0c-0.7,0.1-1.2,0.5-1.6,1.1c-0.3,0.4-0.4,0.9-0.4,1.3v2.2c0,0,0,0,0,0.1c0,0.6,0.3,1.2,0.7,1.5
	C74.8,56.8,75.3,57,75.8,57z M83.8,52.8v1.7c-2.5-0.4-5.1-0.4-7.6,0l0-1.6c1.3-0.2,2.6-0.3,4-0.3C81.3,52.5,82.6,52.6,83.8,52.8z"/>
</svg>
