<?xml version="1.0" encoding="utf-8"?>
<!-- Generator: Adobe Illustrator 22.1.0, SVG Export Plug-In . SVG Version: 6.00 Build 0)  -->
<svg version="1.1" id="Layer_1" xmlns="http://www.w3.org/2000/svg" xmlns:xlink="http://www.w3.org/1999/xlink" x="0px" y="0px"
	 viewBox="0 0 100 125" style="enable-background:new 0 0 100 125;" xml:space="preserve">
<path d="M91.4,48.1c0.7,0,1.2-0.5,1.2-1.2s-0.5-1.2-1.2-1.2h-4.6c0.3-1.2,0.4-2.5,0.4-3.8c0-0.3,0-0.5,0-0.8l3.7-1
	c0.6-0.2,1-0.8,0.9-1.5s-0.8-1-1.5-0.9L87,38.7c-0.4-2.1-1.1-4.2-2.3-6.1l1.8-20c0.1-1-0.4-1.9-1.3-2.5c-0.9-0.5-2-0.6-3,0
	l-12.7,5.6c-3.1-1.2-6.4-2-10-2c-3.5,0-6.9,0.7-10,2L37,10.1c-0.9-0.5-2.1-0.5-3,0c-0.9,0.5-1.3,1.5-1.3,2.5l1.8,20
	c-1.1,1.9-1.9,4-2.3,6.1L29,37.9c-0.6-0.2-1.3,0.2-1.5,0.9c-0.2,0.6,0.2,1.3,0.9,1.5l3.7,1c0,0.3,0,0.5,0,0.8c0,1.3,0.1,2.5,0.4,3.8
	h-4.6c-0.7,0-1.2,0.5-1.2,1.2s0.5,1.2,1.2,1.2h5.2c0.5,1.3,1.1,2.5,1.8,3.7l-6.7,1.8c-0.6,0.2-1,0.8-0.9,1.5
	c0.1,0.5,0.6,0.9,1.2,0.9c0.1,0,0.2,0,0.3,0l7.6-2c1.1,1.4,2.4,2.7,3.8,3.9c-0.3,0-0.7,0.1-1.1,0.2c-1,0.3-1.5,0.6-1.9,0.9
	c-0.3,0.2-0.6,0.4-1.1,0.6c-0.5,0.2-0.8,0.2-1.1,0.3c-0.5,0.1-1,0.1-2,0.5c-0.6,0.3-0.9,0.8-1.2,1.1c0,0,0,0.1-0.1,0.1
	c0,0,0,0-0.1,0c-0.3,0.1-0.9,0.3-1.3,0.9c-0.4,0.5-0.4,1-0.5,1.4c0,0.1,0,0.2,0,0.2c0,0.1-0.1,0.1-0.2,0.2c-0.2,0.3-0.6,0.7-0.7,1.3
	c-0.1,0.6,0,1.1,0.1,1.5C14.5,75.6,8,86.7,7.7,87.2c-0.5,1-0.2,2.2,0.7,2.7c0.3,0.2,0.7,0.3,1,0.3c0.7,0,1.4-0.4,1.7-1
	c0.1-0.1,6-10.1,18.9-18.1c0.1,0.2,0.2,0.4,0.4,0.6c0.5,0.5,1,0.6,1.4,0.6c0,0,0,0,0.1,0.1c-2.2,4.9-3.5,10.5-3.5,16.4
	c0,0.8,0.7,1.5,1.5,1.5s1.5-0.7,1.5-1.5c0,0,0,0,0,0c0-5.8,1.3-11.2,3.6-15.9c0.3,0.1,0.8,0.1,1.2-0.1c0.9-0.4,1.3-0.7,1.7-1
	c0.3-0.2,0.6-0.4,1.1-0.6c0.6-0.2,0.8-0.2,1.2-0.2c0.4,0,1,0,1.9-0.3c0.9-0.3,1.4-0.5,1.8-0.7c0.3-0.2,0.6-0.3,1.1-0.4
	c0.6-0.1,0.8-0.1,1.2-0.1c0.4,0,1,0.1,1.9-0.1c0.9-0.1,1.4-0.4,1.8-0.5c0.3-0.1,0.5-0.2,1.1-0.3c0.6-0.1,0.9,0,1.3,0.1
	c0.4,0.1,1,0.2,1.9,0.1c0.7,0,1.1-0.4,1.4-0.6c0.4,0,1,0,1.5-0.4c0.6-0.4,0.7-1,0.8-1.3c0.3-0.2,0.8-0.5,1-1.2
	c0.1-0.3,0.1-0.6,0.1-0.9c0.2,0,0.4,0,0.6,0c5.4,0,10.4-1.3,14.6-3.4c8.1,5.7,13.6,16.1,13.6,27.9c0,0,0,0,0,0
	c0,0.8,0.7,1.5,1.5,1.5s1.5-0.7,1.5-1.5c0-12.3-5.5-23.1-13.8-29.5c2.3-1.5,4.2-3.3,5.8-5.3l7.6,2c0.1,0,0.2,0,0.3,0
	c0.5,0,1-0.4,1.2-0.9c0.2-0.6-0.2-1.3-0.9-1.5l-6.7-1.8c0.7-1.2,1.3-2.4,1.8-3.7H91.4z M72.9,48.1H83c-0.4,1-1,2-1.6,2.9l-7.9-2.1
	c-0.6-0.2-1.3,0.2-1.5,0.9c-0.2,0.6,0.2,1.3,0.9,1.5l6.9,1.8c-1.5,1.6-3.3,3.1-5.3,4.3c-0.5,0.3-1,0.6-1.5,0.8
	c-0.6,0.3-1.1,0.5-1.7,0.8c-3.4,1.5-7.4,2.3-11.6,2.3c-0.3,0-0.6,0-0.8,0c-0.1-0.3-0.3-0.5-0.5-0.6c-0.1-0.1-0.1-0.1-0.1-0.1
	c0-0.1,0-0.1,0-0.2c-0.1-0.4-0.1-0.9-0.5-1.4c-0.4-0.5-0.9-0.7-1.2-0.9c-0.1,0-0.1-0.1-0.1,0c-0.1-0.1-0.1-0.1-0.1-0.2
	c-0.2-0.3-0.5-0.8-1-1.1c-0.1,0-0.1,0-0.1-0.1c-0.6-0.3-1.1-0.2-1.4-0.2c0,0,0,0,0,0c0,0,0,0-0.1,0c-0.3-0.2-0.9-0.5-1.6-0.5
	c-0.1,0-0.1,0-0.2,0c-0.9,0.1-1.4,0.2-1.8,0.4c-0.3,0.1-0.5,0.2-1.1,0.3c-0.6,0.1-0.9,0-1.2,0c-0.3,0-0.6-0.1-1-0.1
	c-0.3,0-0.6,0-1.1,0.1c-0.6,0.1-1,0.2-1.4,0.4c-1.7-1.1-3.3-2.4-4.5-3.8l6.9-1.8c0.6-0.2,1-0.8,0.9-1.5c-0.2-0.6-0.8-1-1.5-0.9
	L38,51c-0.6-0.9-1.2-1.9-1.6-2.9h10.1c0.7,0,1.2-0.5,1.2-1.2s-0.5-1.2-1.2-1.2H35.5c-0.3-1.2-0.5-2.5-0.5-3.8c0,0,0,0,0,0l11,2.9
	c0.1,0,0.2,0,0.3,0c0.5,0,1-0.4,1.2-0.9c0.2-0.6-0.2-1.3-0.9-1.5l-11.4-3c0-0.2,0.1-0.4,0.1-0.7c0.2-1.1,0.6-2.1,1-3.1
	c0.4-1,0.9-1.9,1.5-2.8c0.5-0.7,0.9-1.3,1.5-2l0.2-0.3l0.1-0.4c1.2-4.9,4.9-9,9.9-11.3c0.6-0.3,1.3-0.6,1.9-0.8
	c0.7-0.3,1.4-0.5,2.2-0.7c1.9-0.5,3.9-0.8,5.9-0.8c2,0,4,0.3,5.9,0.8c0.7,0.2,1.5,0.4,2.2,0.7c0.7,0.2,1.3,0.5,1.9,0.8
	c5,2.4,8.7,6.4,9.9,11.3l0.1,0.4l0.2,0.3c0.6,0.6,1,1.3,1.5,2c0.6,0.9,1.1,1.8,1.5,2.8c0.4,1,0.8,2.1,1,3.1c0,0.2,0.1,0.4,0.1,0.7
	l-11.4,3c-0.6,0.2-1,0.8-0.9,1.5c0.1,0.5,0.6,0.9,1.2,0.9c0.1,0,0.2,0,0.3,0l11-2.9c0,0,0,0,0,0c0,1.3-0.2,2.5-0.5,3.8H72.9
	c-0.7,0-1.2,0.5-1.2,1.2S72.2,48.1,72.9,48.1z M56,64.1c-0.1,0.1-0.3,0.3-0.4,0.4c-0.1,0.2-0.2,0.3-0.3,0.5c-0.2,0-0.4,0-0.6,0.1
	c-0.4,0.1-0.7,0.4-0.9,0.5c-0.4,0-0.6,0-0.9-0.1c-0.5-0.1-1.1-0.2-2.1-0.1c-1,0.1-1.6,0.3-2,0.5c-0.3,0.1-0.5,0.2-1.1,0.3
	c-0.6,0.1-0.8,0.1-1.2,0.1c-0.5,0-1.1-0.1-2.1,0.2c-1,0.2-1.5,0.5-1.9,0.8c-0.3,0.2-0.6,0.3-1.1,0.5c-0.6,0.2-0.8,0.2-1.2,0.2
	c-0.5,0-1,0.1-2.1,0.4c-0.2,0.1-0.4,0.2-0.6,0.2c-0.6,0.3-1,0.5-1.3,0.8c-0.3,0.2-0.5,0.3-0.8,0.5c-0.1,0-0.3-0.1-0.4-0.1
	c-0.2,0-0.4,0-0.6,0c-0.2,0-0.4,0.1-0.6,0.2c-0.1-0.1-0.3-0.2-0.4-0.3c0,0,0,0-0.1,0c-0.1-0.1-0.2-0.1-0.3-0.1c-0.1,0-0.2,0-0.2-0.1
	c0-0.2-0.1-0.4-0.2-0.6c-0.1-0.3-0.3-0.5-0.5-0.6c0.1-0.3,0.2-0.6,0.2-0.9c0-0.4-0.1-0.8-0.2-1c0,0,0,0,0,0c0.2-0.2,0.4-0.5,0.6-0.8
	c0-0.1,0-0.1,0.1-0.2c0.1-0.3,0.2-0.5,0.2-0.8c0,0,0,0,0,0c0.2-0.1,0.5-0.2,0.8-0.4c0.3-0.3,0.5-0.5,0.7-0.8c0,0,0-0.1,0.1-0.1
	c0.4-0.2,0.7-0.2,1-0.2c0.4-0.1,1-0.1,1.8-0.4c0.9-0.3,1.4-0.6,1.7-0.9c0.3-0.2,0.6-0.4,1.1-0.5c0.1,0,0.2-0.1,0.3-0.1
	c0.4-0.1,0.6-0.1,0.9-0.1c0.4,0,0.9,0,1.7-0.2c0,0,0.1,0,0.1,0c0.3-0.1,0.6-0.2,0.9-0.2c0.4-0.1,0.7-0.3,0.9-0.4
	c0.3-0.1,0.5-0.2,0.8-0.3c0.1,0,0.2,0,0.3-0.1c0.6-0.1,0.9-0.1,1.2,0c0,0,0,0,0,0c0.4,0.1,1,0.1,1.9,0c0.1,0,0.1,0,0.2,0
	c0.8-0.1,1.3-0.3,1.7-0.4c0.3-0.1,0.5-0.2,0.9-0.2c0,0,0,0,0.1,0c0.2,0.1,0.5,0.3,0.9,0.4c0.3,0.1,0.6,0.1,0.9,0.1
	c0.2,0.2,0.3,0.5,0.6,0.8c0.3,0.3,0.6,0.4,0.9,0.5c0,0,0,0,0,0c0,0,0,0,0,0c0,0.1,0,0.2,0,0.3c0,0.2,0.1,0.5,0.2,0.7
	c0.2,0.3,0.4,0.6,0.6,0.8c0,0,0,0,0,0c-0.1,0.2-0.2,0.5-0.2,0.8C55.9,63.6,55.9,63.9,56,64.1C56,64.1,56,64.1,56,64.1z M37.2,28.4
	l-1.4-15.5l10.4,4.6C41.9,20.1,38.7,23.9,37.2,28.4z M82.1,28.4c-1.5-4.5-4.7-8.3-9-10.9l10.4-4.6L82.1,28.4z M52.7,34.9
	c-1.3-0.8-5.1-0.1-7.4,0.7c-0.1,0-0.3,0.1-0.4,0.1c-0.5,0-1-0.3-1.1-0.8c-0.2-0.6,0.1-1.3,0.7-1.5c1.1-0.4,6.8-2.3,9.5-0.5
	c0.6,0.4,0.7,1.1,0.3,1.7C54,35.1,53.3,35.2,52.7,34.9z M74,35.6c-2.3-0.8-6.1-1.6-7.4-0.7c-0.6,0.4-1.3,0.2-1.7-0.3
	c-0.4-0.6-0.2-1.3,0.3-1.7c2.7-1.8,8.4,0.1,9.5,0.5c0.6,0.2,1,0.9,0.7,1.5c-0.2,0.5-0.6,0.8-1.1,0.8C74.3,35.7,74.1,35.7,74,35.6z
	 M65.6,47.7c0.4,0.5,0.4,1.2-0.1,1.7c-0.2,0.1-1.4,1.2-3,1.2c-0.3,0-0.6,0-0.9-0.1c-0.7-0.2-1.4-0.6-1.9-1.3
	c-0.5,0.7-1.2,1.1-1.9,1.3c-0.3,0.1-0.6,0.1-0.9,0.1c-1.6,0-2.9-1.1-3-1.2c-0.5-0.4-0.5-1.2-0.1-1.7c0.4-0.5,1.2-0.5,1.7-0.1
	c0.2,0.2,1.1,0.8,1.7,0.6c0.5-0.1,0.9-0.7,1.3-1.7v-1.7c-0.2-0.1-0.3-0.3-0.4-0.4l-1.5-2.2c-0.9-1.3,0-3.1,1.7-3.1h3
	c1.6,0,2.6,1.8,1.7,3.1l-1.5,2.2c-0.1,0.2-0.3,0.3-0.4,0.4v1.7c0.4,1,0.8,1.6,1.3,1.7c0.6,0.2,1.5-0.4,1.7-0.6
	C64.4,47.2,65.1,47.2,65.6,47.7z M16.1,64.8c0-0.2,1.1-3.9,6-6.3c0.6-0.3,1.3,0,1.6,0.6c0.3,0.6,0,1.3-0.6,1.6
	c-3.9,1.9-4.7,4.7-4.7,4.8c-0.1,0.5-0.6,0.9-1.2,0.9c-0.1,0-0.2,0-0.3,0C16.3,66.1,15.9,65.5,16.1,64.8z M23.8,62
	c0.6-0.3,1.3,0,1.6,0.6c0.3,0.6,0,1.3-0.6,1.6c-1.7,0.8-2,2-2,2c-0.2,0.5-0.6,0.9-1.2,0.9c-0.1,0-0.2,0-0.3,0
	c-0.6-0.2-1-0.8-0.8-1.4C20.5,65.3,21.1,63.3,23.8,62z"/>
</svg>
