<?xml version="1.0" encoding="utf-8"?>
<!-- Generator: Adobe Illustrator 22.1.0, SVG Export Plug-In . SVG Version: 6.00 Build 0)  -->
<svg version="1.1" id="Layer_1" xmlns="http://www.w3.org/2000/svg" xmlns:xlink="http://www.w3.org/1999/xlink" x="0px" y="0px"
	 viewBox="0 0 50 50" style="enable-background:new 0 0 50 50;" xml:space="preserve">
<style type="text/css">
	.st0{fill:#5E58B7;}
</style>
<path class="st0" d="M24.2,18.7v-1c0-0.2,0.1-0.4,0.4-0.4s0.4,0.1,0.4,0.4v0.9h0.6c0.2,0,0.4,0.1,0.4,0.4c0,0.2-0.1,0.4-0.4,0.4
	h-0.6C24.5,19.2,24.2,19,24.2,18.7z M21.9,17.1c0.4,0,0.7-0.3,0.7-0.7c0-0.4-0.3-0.6-0.7-0.6s-0.7,0.3-0.7,0.7
	C21.2,16.8,21.5,17.1,21.9,17.1z M28.1,17.1c0.4,0,0.7-0.3,0.7-0.7c0-0.4-0.3-0.6-0.7-0.6s-0.7,0.3-0.7,0.7
	C27.4,16.8,27.8,17.1,28.1,17.1z M25,21.5c0.8,0,1.7-0.2,1.7-0.7c0-0.2-0.1-0.4-0.4-0.4c-0.1,0-0.3,0.1-0.3,0.2
	c-0.1,0-0.5,0.2-1,0.2s-0.9-0.1-1-0.2c0-0.1-0.2-0.2-0.3-0.2c-0.2,0-0.4,0.1-0.4,0.4C23.3,21.3,24.2,21.5,25,21.5z M24.2,34.9
	c0-0.3-0.2-0.5-0.5-0.5s-0.5,0.2-0.5,0.5s0.2,0.5,0.5,0.5S24.2,35.2,24.2,34.9z M26.3,34.3c-0.3,0-0.5,0.2-0.5,0.5s0.2,0.5,0.5,0.5
	s0.5-0.2,0.5-0.5S26.6,34.3,26.3,34.3z M25.9,38.5c0,0-0.1,0-0.1,0.1c-0.1,0-0.2,0.1-0.3,0c0,0-0.1,0-0.1-0.1c0,0,0,0,0,0
	c0.2,0,0.4-0.1,0.5-0.2S26,38,26,37.8c0-0.3-0.5-0.6-1-0.6s-1,0.3-1,0.6c0,0.1,0.1,0.3,0.2,0.4c0.1,0.1,0.3,0.2,0.5,0.2c0,0,0,0,0,0
	c0,0-0.1,0.1-0.1,0.1c-0.1,0-0.2,0-0.3,0c0,0-0.1,0-0.1-0.1c-0.1-0.1-0.2,0-0.3,0c0,0,0,0.1,0,0.2c0,0,0,0.1,0.1,0.1
	c0,0,0.1,0.1,0.2,0.1c0.1,0.1,0.3,0.1,0.5,0.1c0.1,0,0.2,0,0.3,0c0.1,0,0.2-0.1,0.3-0.2l0,0l0,0c0,0.1,0.1,0.2,0.3,0.2
	c0.1,0,0.2,0,0.3,0c0.1,0,0.3,0,0.5-0.1c0,0,0.1,0,0.2-0.1c0,0,0.1-0.1,0.1-0.1c0,0,0-0.1,0-0.2C26.1,38.4,26,38.4,25.9,38.5z
	 M38.3,41.2c-0.2,0.5-0.7,0.9-1.2,1l-4.9,1.3v0.2c0,0.3-0.2,0.5-0.5,0.5h-0.8c0,0-0.1,0-0.1,0l-0.4,0.1c0,0.3,0,0.6,0,0.9
	c0,0.2-0.1,0.4-0.4,0.4s-0.4-0.1-0.4-0.4l0,0c0-0.3,0-0.5,0-0.8l-1.1,0.2c0,0-0.1,0-0.2,0c-0.1,0-0.3,0-0.5-0.1s-0.2-0.2-0.3-0.4
	c0,0,0-0.1,0-0.1s0-0.1,0-0.2c-0.4,0-0.7-0.3-0.8-0.6c0-0.1,0-0.2,0-0.3c0,0-0.1,0-0.2-0.1c-0.2-0.1-0.3-0.3-0.4-0.5
	c0-0.2,0-0.4,0.1-0.6c0,0,0,0,0.1-0.1l0,0c0-0.1-0.1-0.1-0.1-0.2v0c0-0.1,0-0.2,0-0.4c0-0.1,0-0.1,0.1-0.2c0.1-0.2,0.3-0.3,0.5-0.4
	l1-0.2c-0.3-0.3-0.6-0.6-0.8-0.7c-0.6,0.5-1.3,0.8-2.1,0.8s-1.5-0.3-2.1-0.8c-0.3,0.2-0.6,0.5-0.8,0.7l1,0.2c0.2,0,0.4,0.2,0.5,0.4
	c0,0.1,0.1,0.1,0.1,0.2c0,0.1,0,0.2,0,0.4v0c0,0.1,0,0.2-0.1,0.2l0,0c0.2,0.2,0.2,0.5,0.2,0.7c0,0.2-0.2,0.4-0.4,0.5
	c0,0-0.1,0-0.2,0.1c0,0.1,0,0.2,0,0.3c-0.1,0.4-0.4,0.6-0.8,0.6c0,0,0,0.1,0,0.2c0,0,0,0.1,0,0.1c0,0.1-0.2,0.3-0.3,0.4
	c-0.1,0.1-0.3,0.1-0.5,0.1c0,0-0.1,0-0.2,0l-1.1-0.2c0,0.3,0,0.5,0,0.8l0,0c0,0.2-0.1,0.4-0.4,0.4c-0.2,0-0.4-0.1-0.4-0.4
	c0-0.3,0-0.6,0-0.9l-0.4-0.1c0,0-0.1,0-0.1,0h-0.8c-0.3,0-0.5-0.2-0.5-0.5v-0.2l-4.7-1.3c-0.6-0.1-1-0.5-1.2-1
	c-0.2-0.5-0.3-1.1-0.1-1.6l2.7-6.9l-1.2-0.6c-0.2-0.1-0.4-0.4-0.2-0.6c0.7-1.6,3.5-6.8,5.9-7c0.1,0,0.3,0,0.5,0l0,0v6.6
	c0,0,0,0-0.1,0c-0.2,0.1-0.5,0.3-0.6,0.5c0,0,0,0.1-0.1,0.2c0,0.1,0,0.2,0,0.3c0,0.2,0,0.3,0.1,0.5c0,0,0,0.1,0,0.1
	c0.2,0.3,0.5,0.5,0.9,0.5c0.6,0,1.1-0.5,1.1-1.1c0-0.5-0.3-0.9-0.8-1v-6.7h1.3c0.1,0,0.2,0,0.3,0.1H22v-1.8c0,0,0,0,0,0
	c-1.3-0.8-2.2-2.1-2.7-3.6c0,0-0.1,0-0.2,0c-0.6,0-1.2-0.5-1.5-1.2c-0.4-0.9-0.1-1.8,0.6-2.1c0,0,0,0,0.1,0c-0.2-1-1-5.3,1.1-7.9
	C20.5,6.6,22.1,6,24.3,6c0,0,0.1,0,0.1,0c2.7-0.3,4.7,0.3,6,1.7c2.3,2.5,1.6,6.9,1.3,8.1c0,0,0,0,0.1,0c0.3,0.1,0.6,0.5,0.7,0.9
	c0.1,0.4,0,0.8-0.1,1.2c-0.2,0.4-0.4,0.8-0.7,1c-0.2,0.2-0.5,0.3-0.7,0.3c0,0-0.1,0-0.2,0c-0.5,1.6-1.3,2.9-2.7,3.7l0,0v1.8h0.5
	c0.1-0.1,0.2-0.1,0.3-0.1h0.8v2.1c-0.4,0-0.8,0.2-1,0.6c-0.1,0.1-0.1,0.3-0.1,0.5v2.1c0,0.7,0.3,1.3,0.8,1.7c-0.1,0-0.3,0-0.5,0
	h-0.1c0-0.1-0.2-0.2-0.3-0.2H28c-0.2,0-0.3,0.1-0.3,0.3v0.2c0,0.2,0.1,0.3,0.3,0.3h0.5c0.1,0,0.2-0.1,0.3-0.2h0.1
	c0.4,0,0.7-0.1,1.1-0.2c0.3,0.1,0.6,0.2,1,0.2h0h0.1l0,0c0,0.1,0.2,0.2,0.3,0.2h0.1l0,0h0.3h0c0,0,0,0,0,0c0,0,0.1,0,0.1,0
	c0.1,0,0.1-0.1,0.1-0.3v-0.3c0-0.1,0-0.2-0.1-0.3c0,0-0.1,0-0.2,0h0h-0.3l0,0h-0.1c-0.1,0-0.1,0-0.2,0.1c0,0-0.1,0.1-0.1,0.1H31
	c0,0-0.1,0-0.1,0c-0.1,0-0.1,0-0.2,0c0,0-0.1,0-0.2,0c0,0,0.1-0.1,0.1-0.1c0,0,0.1-0.1,0.1-0.2c0.1-0.1,0.2-0.2,0.2-0.3
	c0.1-0.1,0.1-0.3,0.2-0.5c0-0.2,0.1-0.4,0.1-0.6V29v-0.5V28v-0.4c0-0.5-0.5-1-1.1-1v-2v0h0.5l0,0c0.1,0,0.3,0,0.5,0
	c2.4,0.2,5.2,5.4,5.9,7c0.1,0.2,0,0.5-0.2,0.6l-1.2,0.6l2.7,6.9C38.6,40.1,38.6,40.7,38.3,41.2z M30.9,18.6c0.1,0,0.2,0,0.3-0.1
	c0.2-0.1,0.4-0.4,0.5-0.7c0.1-0.3,0.1-0.6,0.1-0.8c0-0.1-0.1-0.3-0.2-0.4c0,0-0.1,0-0.1,0c-0.1,0-0.1,0-0.2,0
	C31.2,17.3,31.1,17.9,30.9,18.6z M19.1,18.6c-0.1-0.6-0.3-1.3-0.4-2c0,0-0.1,0-0.2,0c0,0-0.1,0-0.1,0c-0.3,0.1-0.4,0.6-0.1,1.2
	C18.5,18.2,18.9,18.6,19.1,18.6z M32.3,39.4l1.6-0.4l-1.6-4.1V39.4z M27.8,25.4h-0.2c-0.2,0-0.4-0.1-0.4-0.4v-1.8
	c-0.6,0.3-1.4,0.5-2.3,0.5c-0.9,0-1.7-0.2-2.3-0.5V25c0,0.2-0.1,0.4-0.4,0.4h-0.1l2.5,2.4c0.2,0.2,0.5,0.2,0.6,0L27.8,25.4z
	 M22.6,22.4c0.1,0.1,0.3,0.1,0.5,0.2c0.2,0.1,0.4,0.1,0.6,0.2c0.4,0.1,0.8,0.2,1.3,0.2c0.6,0,1.2-0.1,1.7-0.3c0.1,0,0.3-0.1,0.5-0.2
	c0.1,0,0.3-0.1,0.4-0.2c1.3-0.7,2.1-1.9,2.6-3.6c0-0.2,0.1-0.3,0.1-0.5c0.1-0.5,0.2-1,0.3-1.5c0-0.2,0-0.4,0.1-0.6
	c0-0.1,0-0.2,0-0.3l-0.3-0.4c-2-1.1-3-2.8-3.4-3.8c-1.2,1.3-2.9,1.3-3,1.2c-0.2,0-0.4-0.1-0.4-0.3c0,0,0-0.1,0-0.1
	c-1.1,0.4-2.1,0.5-2.2,0.5c-0.1,0-0.3,0-0.4-0.2c-0.6,0.2-1,0.4-1.2,0.4c-0.1,0.3-0.3,0.8-0.3,1.3c0,0.6,0.1,1.2,0.1,1.8
	c0,0.2,0,0.4,0.1,0.6c0.1,0.5,0.2,1,0.3,1.5c0,0.2,0.1,0.3,0.1,0.5C20.4,20.5,21.3,21.8,22.6,22.4z M20,40.5c-0.3,0-0.5,0-0.7,0
	c-0.1,0-0.2,0-0.2,0c-0.1,0-0.1,0-0.2-0.1l-0.4-0.1l-2.9-0.8c-0.1,0-0.2-0.1-0.2-0.2c0-0.1,0-0.2,0-0.3l2-5.2L15,33l-2.7,6.9
	c-0.1,0.3-0.1,0.7,0,1c0.2,0.3,0.5,0.6,0.8,0.6l4.7,1.3l0.2,0c0,0,0.1,0,0.1,0h0c0.1,0,0.2,0,0.2,0.1c0.2,0.3,0.6,0.5,0.9,0.6l0.3,0
	l0.3,0.1l0.3,0.1l1.2,0.2c0,0,0.1,0,0.1,0s0,0,0-0.1s0-0.1-0.1-0.1l-1.2-0.2l-0.1-0.1c0,0-0.1,0-0.2-0.1S20,43.3,20,43.3
	c0-0.1,0-0.2,0-0.3c0,0,0.1-0.1,0.2-0.1c0,0,0.1,0,0.2,0l0.2,0l1.8,0.4c0,0,0.1,0,0.1-0.1s0-0.1,0-0.1s0,0-0.1,0l-1.7-0.4l0,0
	c-0.1,0-0.2-0.1-0.3-0.3c0,0,0-0.1,0-0.1c0,0,0-0.1,0.1-0.2l0,0c0.1,0,0.2-0.1,0.3,0h0.1l2,0.4c0,0,0.1,0,0.1,0s0,0,0-0.1
	s0-0.1-0.1-0.1L21,41.8h0l-0.1,0c0,0-0.1,0-0.2-0.1s-0.1-0.1-0.1-0.2c0,0,0,0,0-0.1c0-0.1,0.1-0.2,0.1-0.2h0c0.1,0,0.1,0,0.2,0l0,0
	l0.2,0l0.1,0l1.4,0.3c0,0,0.1,0,0.1-0.1s0-0.1,0-0.1s0,0-0.1,0l-0.5-0.1L20,40.5z M16.1,39l1.6,0.4v-4.6L16.1,39z M28.2,35.3
	l0.2-0.7l0.8,1.2c0,0.1,0.1,0.1,0.2,0.1c0.1,0,0.2-0.2,0.2-0.4c0-0.4,0-0.7,0-1.1c0-1-1.6-1.5-2.1-1.7l-0.1,0
	c-0.6-0.4-1.4-0.6-2.5-0.6s-1.9,0.2-2.5,0.6l-0.1,0h0c-0.5,0.1-2.2,0.6-2.1,1.7c0,0.4,0,0.7,0,1.1c0,0.2,0.1,0.4,0.2,0.4
	c0.1,0,0.2,0,0.2-0.1l0.8-1.2l0.2,0.7c0.1,0.3,0.2,0.6,0.4,0.8l0,0.1v0.2c0,0.8,0.3,1.6,0.8,2.1c0.1,0.1,0.2,0.2,0.2,0.3
	c0.1,0.1,0.2,0.2,0.3,0.2c0.4,0.3,0.9,0.5,1.4,0.5s1-0.2,1.4-0.5c0.1-0.1,0.2-0.1,0.3-0.2c0.1-0.1,0.2-0.2,0.2-0.3
	c0.5-0.6,0.8-1.3,0.8-2.1v-0.2l0-0.1C28,35.9,28.1,35.6,28.2,35.3z M37.7,39.8L35,32.9l-2.3,1l2,5.2c0,0.1,0,0.2,0,0.3
	c0,0.1-0.1,0.1-0.2,0.2l-2.9,0.8l-0.4,0.1c-0.1,0-0.2,0-0.2,0.1c-0.1,0-0.2,0-0.2,0c-0.2-0.1-0.5-0.1-0.7,0L27.6,41l-0.5,0.1
	c0,0,0,0-0.1,0c0,0,0,0,0,0.1c0,0,0.1,0.1,0.1,0.1l1.4-0.3l0.1,0l0.2,0l0,0c0.1,0,0.2,0,0.3,0l0,0c0.1,0,0.1,0.1,0.1,0.2
	c0,0,0,0.1,0,0.1c0,0.1,0,0.1-0.1,0.2c0,0-0.1,0.1-0.1,0.1l-0.1,0l0,0L27,42.1c0,0-0.1,0.1-0.1,0.1c0,0,0,0,0,0.1c0,0,0,0,0.1,0
	l2-0.4h0.1c0.1,0,0.2,0,0.3,0.1c0,0,0.1,0.1,0.1,0.2c0,0,0,0.1,0,0.1s0,0.1,0,0.1c0,0.1-0.1,0.1-0.2,0.2l0,0L27.5,43c0,0,0,0-0.1,0
	c0,0,0,0,0,0.1c0,0,0.1,0.1,0.1,0.1l1.8-0.4l0.2,0c0,0,0,0,0.1,0c0,0,0.1,0,0.1,0c0,0,0.1,0,0.1,0.1c0.1,0.1,0.1,0.2,0.1,0.4
	c0,0,0,0.1-0.1,0.1c0,0-0.1,0.1-0.1,0.1l-0.2,0l-1.2,0.2c0,0-0.1,0.1-0.1,0.1c0,0,0,0,0,0.1c0,0,0,0,0.1,0l1.2-0.2l0.3-0.1l0.3-0.1
	l0.3,0c0.4-0.1,0.7-0.3,0.9-0.6c0-0.1,0.1-0.1,0.2-0.1h0c0,0,0.1,0,0.1,0l0.2,0l4.9-1.4c0.4-0.1,0.6-0.3,0.8-0.6
	C37.9,40.6,37.9,40.2,37.7,39.8z M29.2,27.6v0.5v1.6c0,0.6,0.3,1.1,0.8,1.4c0.2-0.1,0.3-0.2,0.5-0.4c0-0.1,0.1-0.1,0.1-0.2
	c0.1-0.2,0.1-0.4,0.2-0.6c0-0.1,0-0.2,0-0.3v-0.5v-0.8v-0.9c0-0.2-0.3-0.5-0.6-0.5h-0.3C29.5,27.2,29.2,27.4,29.2,27.6z M18.9,32.2
	L18.9,32.2c0,0.4,0.3,0.6,0.6,0.6c0.3,0,0.6-0.3,0.6-0.6c0-0.3-0.3-0.6-0.6-0.6c-0.2,0-0.3,0-0.4,0.2C19,31.9,18.9,32,18.9,32.2z"/>
</svg>
